<svg width="256" height="256" viewBox="0 0 256 256" fill="none" xmlns="http://www.w3.org/2000/svg">
<g clip-path="url(#clip0_6_32)">
<g clip-path="url(#clip1_6_32)">
<g clip-path="url(#clip2_6_32)">
<path d="M175.908 186.949C175.766 187.365 175.494 187.724 175.133 187.974C174.772 188.224 174.34 188.352 173.901 188.339H169.518L172.24 174.757C172.566 175.401 172.86 176.061 173.119 176.735L175.967 185.623C176.118 186.056 176.097 186.531 175.908 186.949ZM80.0939 186.955C79.9042 186.537 79.8818 186.062 80.0313 185.627L82.8466 176.836C83.115 176.129 83.4199 175.437 83.7599 174.761L86.4824 188.339H82.0996C81.7094 188.343 81.3258 188.239 80.9906 188.039C80.6555 187.839 80.3819 187.551 80.1997 187.206C80.1592 187.125 80.1239 187.041 80.0939 186.955ZM109.601 176.119C110.103 176.717 110.759 177.165 111.499 177.415L117.74 188.339H112.421L109.601 176.119ZM116.169 176.883L121.763 175.292C123.485 176.812 125.703 177.65 128 177.65C130.297 177.65 132.515 176.812 134.237 175.292L139.831 176.883L133.285 188.339H122.715L116.169 176.883ZM144.501 177.415C144.937 177.266 145.345 177.048 145.713 176.771C145.964 176.579 146.194 176.361 146.399 176.119L143.579 188.339H138.26L144.501 177.415ZM137.435 147.849C134.767 150.014 131.436 151.196 128 151.196C124.564 151.196 121.233 150.014 118.565 147.849C117.011 146.575 115.629 145.366 114.312 144.136C114.334 144.352 114.377 144.567 114.398 144.762C114.629 146.668 114.752 148.585 114.765 150.505L128 161.861L141.235 150.505C141.248 148.585 141.371 146.668 141.602 144.762C141.623 144.546 141.667 144.352 141.688 144.136C140.371 145.366 138.989 146.575 137.435 147.849ZM92.0094 165.898C88.5982 168.381 88.0801 168.813 87.9073 168.986C87.6483 169.245 87.4108 169.547 87.1733 169.806L90.8868 188.331H97.1911L92.0094 165.898ZM119.515 168.727L112.887 164.841V173.325L119.515 171.447C119.421 171 119.371 170.544 119.364 170.087C119.372 169.63 119.422 169.174 119.515 168.727ZM119.515 168.727L112.887 164.841V173.325L119.515 171.447C119.421 171 119.371 170.544 119.364 170.087C119.372 169.63 119.422 169.174 119.515 168.727ZM102.135 162.595C100.035 162.73 97.9633 163.158 95.982 163.869L101.617 188.331H107.986L102.157 163.027C102.128 162.885 102.121 162.739 102.135 162.595ZM119.515 168.727L112.887 164.841V173.325L119.515 171.447C119.421 171 119.371 170.544 119.364 170.087C119.372 169.63 119.422 169.174 119.515 168.727ZM119.515 168.727L112.887 164.841V173.325L119.515 171.447C119.421 171 119.371 170.544 119.364 170.087C119.372 169.63 119.422 169.174 119.515 168.727ZM128 166.848C125.668 166.848 123.682 168.338 123.682 170.087C123.682 171.857 125.668 173.325 128 173.325C130.332 173.325 132.318 171.857 132.318 170.087C132.318 168.338 130.332 166.848 128 166.848ZM153.865 162.595C153.879 162.739 153.872 162.885 153.843 163.027L148.014 188.331H154.383L160.018 163.869C158.037 163.158 155.966 162.73 153.865 162.595ZM168.093 168.986C167.92 168.813 167.402 168.381 163.991 165.898L158.809 188.331H165.113L168.827 169.806C168.589 169.547 168.352 169.245 168.093 168.986ZM128 166.848C125.668 166.848 123.682 168.338 123.682 170.087C123.682 171.857 125.668 173.325 128 173.325C130.332 173.325 132.318 171.857 132.318 170.087C132.318 168.338 130.332 166.848 128 166.848ZM128 166.848C125.668 166.848 123.682 168.338 123.682 170.087C123.682 171.857 125.668 173.325 128 173.325C130.332 173.325 132.318 171.857 132.318 170.087C132.318 168.338 130.332 166.848 128 166.848ZM136.485 168.727C136.578 169.174 136.628 169.63 136.636 170.087C136.63 170.544 136.579 171 136.485 171.447L143.113 173.325V164.841L136.485 168.727ZM128 166.848C125.668 166.848 123.682 168.338 123.682 170.087C123.682 171.857 125.668 173.325 128 173.325C130.332 173.325 132.318 171.857 132.318 170.087C132.318 168.338 130.332 166.848 128 166.848ZM128 166.848C125.668 166.848 123.682 168.338 123.682 170.087C123.682 171.857 125.668 173.325 128 173.325C130.332 173.325 132.318 171.857 132.318 170.087C132.318 168.338 130.332 166.848 128 166.848ZM119.515 168.727L112.887 164.841V173.325L119.515 171.447C119.421 171 119.371 170.544 119.364 170.087C119.372 169.63 119.422 169.174 119.515 168.727ZM143.005 154.693L132.512 163.675C133.173 164.031 133.782 164.474 134.326 164.992L141.623 160.717C141.827 160.587 142.055 160.498 142.293 160.458C142.917 160.338 143.559 160.357 144.175 160.513C144.791 160.67 145.365 160.961 145.855 161.365C146.602 161.974 147.119 162.819 147.323 163.761L149.05 160.738L143.005 154.693ZM153.498 109.656C153.353 109.719 153.201 109.763 153.045 109.786C152.93 109.848 152.822 109.92 152.721 110.002C151.786 114.093 151.373 118.286 151.49 122.481C151.77 122.852 152.088 123.192 152.44 123.496C152.958 122.546 153.908 119.523 153.908 112.765C153.969 111.712 153.83 110.657 153.498 109.656ZM152.008 67.9443C150.324 66.9296 146.891 68.8079 143.243 70.8158C138.774 73.2771 133.7 76.0622 128 76.0622C103.128 76.0622 99.933 84.7198 99.933 92.2547C99.9233 93.2378 99.9955 94.2199 100.149 95.191C100.565 98.3171 101.639 101.319 103.301 104L113.125 91.4559C113.577 90.8157 114.154 90.2741 114.822 89.8642C115.49 89.4543 116.235 89.1846 117.01 89.0715C117.786 88.9584 118.576 89.0043 119.334 89.2063C120.091 89.4084 120.799 89.7624 121.415 90.2469C123.3 91.6941 125.609 92.4803 127.986 92.4842C130.362 92.4881 132.674 91.7094 134.563 90.2685C135.179 89.7794 135.887 89.4211 136.646 89.2153C137.405 89.0096 138.197 88.9608 138.975 89.072C139.753 89.1831 140.501 89.4519 141.171 89.8618C141.842 90.2717 142.422 90.8141 142.876 91.4559L152.138 103.287L153.131 103.309C155.05 99.9403 156.061 96.1314 156.067 92.2547C156.067 74.1407 153.865 69.0238 152.008 67.9443ZM103.279 110.023C103.151 109.918 103.014 109.824 102.869 109.743C102.745 109.722 102.623 109.693 102.502 109.656C102.168 110.657 102.028 111.712 102.092 112.765C102.092 119.523 103.042 122.546 103.56 123.496C103.912 123.192 104.23 122.852 104.51 122.481C104.627 118.293 104.214 114.107 103.279 110.023ZM139.486 94.1331C139.373 93.9475 139.223 93.7875 139.045 93.6629C138.867 93.5384 138.665 93.4521 138.452 93.4095C138.239 93.3669 138.019 93.3689 137.807 93.4154C137.595 93.4619 137.395 93.5519 137.219 93.6797C134.578 95.7047 131.343 96.8039 128.015 96.8078C124.686 96.8117 121.449 95.7201 118.803 93.7013C118.628 93.5692 118.427 93.4752 118.213 93.4252C118 93.3752 117.778 93.3704 117.563 93.4111C117.347 93.4517 117.143 93.537 116.962 93.6613C116.782 93.7856 116.629 93.9463 116.514 94.1331L106.885 106.439C106.907 106.526 106.928 106.634 106.95 106.742C106.971 106.844 107 106.945 107.036 107.044V107.109C108.722 113.365 109.264 119.875 108.634 126.324C108.591 126.756 108.569 127.231 108.569 127.706C108.569 131.894 113.081 137.853 121.286 144.481C123.182 146.024 125.551 146.868 127.996 146.872C130.441 146.876 132.813 146.039 134.715 144.503C142.919 137.853 147.431 131.894 147.431 127.706C147.431 127.231 147.41 126.756 147.366 126.281C146.765 120.04 147.254 113.743 148.813 107.67C148.835 107.605 148.856 107.476 148.899 107.346L149.007 106.958C149.05 106.785 149.072 106.612 149.115 106.418L139.486 94.1331ZM125.841 125.719H130.159C130.732 125.719 131.281 125.947 131.686 126.352C132.091 126.757 132.318 127.306 132.318 127.878C132.318 128.451 132.091 129 131.686 129.405C131.281 129.81 130.732 130.037 130.159 130.037H125.841C125.268 130.037 124.719 129.81 124.314 129.405C123.91 129 123.682 128.451 123.682 127.878C123.682 127.306 123.91 126.757 124.314 126.352C124.719 125.947 125.268 125.719 125.841 125.719ZM119.364 114.924V117.083C119.364 117.656 119.137 118.205 118.732 118.61C118.327 119.015 117.778 119.242 117.205 119.242C116.632 119.242 116.083 119.015 115.678 118.61C115.274 118.205 115.046 117.656 115.046 117.083V114.924H112.887C112.314 114.924 111.765 114.697 111.36 114.292C110.956 113.887 110.728 113.338 110.728 112.765C110.728 112.193 110.956 111.644 111.36 111.239C111.765 110.834 112.314 110.606 112.887 110.606H121.523C122.096 110.606 122.645 110.834 123.05 111.239C123.455 111.644 123.682 112.193 123.682 112.765C123.682 113.338 123.455 113.887 123.05 114.292C122.645 114.697 122.096 114.924 121.523 114.924H119.364ZM132.318 138.673H123.682C123.109 138.673 122.56 138.446 122.155 138.041C121.751 137.636 121.523 137.087 121.523 136.514C121.523 135.942 121.751 135.393 122.155 134.988C122.56 134.583 123.109 134.355 123.682 134.355H132.318C132.891 134.355 133.44 134.583 133.845 134.988C134.25 135.393 134.477 135.942 134.477 136.514C134.477 137.087 134.25 137.636 133.845 138.041C133.44 138.446 132.891 138.673 132.318 138.673ZM143.113 114.924H140.954V117.083C140.954 117.656 140.727 118.205 140.322 118.61C139.917 119.015 139.368 119.242 138.795 119.242C138.223 119.242 137.673 119.015 137.268 118.61C136.864 118.205 136.636 117.656 136.636 117.083V114.924H134.477C133.905 114.924 133.355 114.697 132.95 114.292C132.546 113.887 132.318 113.338 132.318 112.765C132.318 112.193 132.546 111.644 132.95 111.239C133.355 110.834 133.905 110.606 134.477 110.606H143.113C143.686 110.606 144.235 110.834 144.64 111.239C145.045 111.644 145.272 112.193 145.272 112.765C145.272 113.338 145.045 113.887 144.64 114.292C144.235 114.697 143.686 114.924 143.113 114.924ZM112.995 154.693L106.95 160.738L108.677 163.761C108.92 162.664 109.581 161.704 110.521 161.087C111.461 160.47 112.604 160.244 113.707 160.458C113.946 160.498 114.173 160.587 114.377 160.717L121.674 164.992C122.218 164.474 122.828 164.031 123.488 163.675L112.995 154.693Z" fill="black"/>
</g>
</g>
<path d="M21.7381 93.2352L19.5045 100.21L3.02264 94.9312L5.15567 88.2697C5.70607 86.5518 6.4887 85.4373 7.50447 84.9243C8.52207 84.4059 9.71887 84.3666 11.0949 84.8073C11.7294 85.0103 12.2633 85.2809 12.6967 85.6174C13.1237 85.952 13.4464 86.336 13.664 86.7685C13.8743 87.2055 13.9612 87.6855 13.9255 88.2085C14.1221 87.8821 14.3772 87.5813 14.6898 87.3051C14.997 87.0272 15.3618 86.8142 15.7852 86.6661C16.2085 86.5179 16.6748 86.443 17.184 86.4411C17.6869 86.4375 18.2345 86.5298 18.827 86.72C19.9223 87.0711 20.7442 87.5419 21.2937 88.1335C21.8377 88.7232 22.1367 89.4464 22.1925 90.3022C22.2446 91.1506 22.0928 92.128 21.7381 93.2352ZM13.8048 94.1486L17.2965 95.2667L18.2629 92.2505C18.368 91.9214 18.389 91.6206 18.3241 91.349C18.2656 91.0793 18.1266 90.8434 17.9072 90.6423C17.6823 90.4384 17.3724 90.2729 16.9774 90.1458C16.6181 90.0306 16.2926 89.9959 16.0009 90.0416C15.7093 90.0864 15.4597 90.1979 15.2503 90.3753C15.0354 90.5509 14.8754 90.8032 14.7703 91.1314L13.8048 94.1486ZM7.70013 92.1929L10.8956 93.2169L11.7989 90.3982C11.9214 90.0151 11.8647 89.6667 11.6288 89.3531C11.3984 89.0423 11.0528 88.8128 10.592 88.6647C9.98767 88.4709 9.5287 88.4626 9.21419 88.6391C8.90607 88.8174 8.70036 89.0688 8.59704 89.3925L7.70013 92.1929Z" fill="black"/>
<path d="M26.0644 82.635L24.2103 86.3451L11.0839 73.8962L13.333 69.3934L31.1707 72.4151L29.3037 76.1509L26.0919 75.5365L23.6352 80.4526L26.0644 82.635ZM15.2905 73.216L20.8228 78.0041L22.4448 74.7575L15.2905 73.216Z" fill="black"/>
<path d="M34.9276 66.8599L32.6373 70.1815L18.3881 60.3584L22.5189 54.3671C22.933 53.7673 23.3893 53.2654 23.8894 52.8613C24.3804 52.459 24.9317 52.1911 25.5442 52.0558C26.1568 51.9205 26.838 51.9561 27.5895 52.1609C28.3356 52.363 29.1694 52.7808 30.091 53.4153C30.7173 53.8469 31.2128 54.2729 31.5794 54.6944C31.9406 55.1113 32.2039 55.5218 32.3685 55.925C32.5367 56.3237 32.6309 56.7122 32.651 57.0926C32.6711 57.4729 32.661 57.8478 32.6199 58.2162L39.9836 59.5264L37.6558 62.9029L31.1168 61.5424C31.0272 61.6713 30.9248 61.8149 30.8096 61.9721C30.6889 62.1257 30.5765 62.2766 30.4732 62.4265C30.3662 62.5819 30.2574 62.7392 30.1468 62.9001C30.0361 63.0601 29.9328 63.211 29.8359 63.3499L34.9276 66.8599ZM23.659 59.0912L27.2128 61.5415L28.6418 59.4697C28.8028 59.2366 28.9125 59.0107 28.971 58.7922C29.0386 58.5719 29.045 58.347 28.9893 58.1184C28.9253 57.8907 28.8018 57.6649 28.6208 57.44C28.4306 57.2178 28.1655 56.9883 27.8236 56.7534C27.477 56.5147 27.168 56.3474 26.8983 56.2523C26.6295 56.1664 26.3927 56.1445 26.1879 56.1865C25.9749 56.2304 25.7774 56.3227 25.5954 56.4645C25.4172 56.6007 25.248 56.7863 25.0871 57.0194L23.659 59.0912Z" fill="black"/>
<path d="M46.8919 51.9963L41.9364 57.3897L29.1913 45.6814L33.9236 40.5303C35.1442 39.2018 36.3227 38.5179 37.4592 38.4795C38.6002 38.4357 39.7028 38.9029 40.7671 39.8802C41.258 40.331 41.6292 40.8 41.8816 41.2873C42.1293 41.771 42.261 42.2546 42.2765 42.7383C42.2839 43.2229 42.1613 43.6946 41.909 44.1554C42.2244 43.9415 42.5819 43.7751 42.9824 43.6562C43.3773 43.5328 43.7979 43.4926 44.245 43.5355C44.6912 43.5785 45.1465 43.7065 45.6091 43.9177C46.0672 44.1253 46.5252 44.4389 46.9833 44.8603C47.8299 45.6384 48.3785 46.411 48.629 47.179C48.8749 47.9424 48.8439 48.7241 48.5348 49.525C48.2258 50.3168 47.6781 51.1406 46.8919 51.9963ZM39.3069 49.4958L42.0077 51.9762L44.1499 49.6439C44.384 49.3897 44.5284 49.1255 44.5833 48.8521C44.6427 48.5824 44.6162 48.3099 44.5019 48.0347C44.3831 47.755 44.1709 47.4752 43.8665 47.1945C43.5885 46.9394 43.3079 46.7712 43.0244 46.6898C42.741 46.6085 42.4667 46.6048 42.2034 46.6779C41.9346 46.7474 41.6841 46.9093 41.45 47.1634L39.3069 49.4958ZM34.5865 45.1593L37.0578 47.4295L39.0601 45.2498C39.3325 44.9536 39.4267 44.6135 39.3444 44.2304C39.2658 43.851 39.0491 43.4981 38.6916 43.1707C38.2244 42.741 37.8112 42.5408 37.4528 42.5691C37.098 42.6021 36.8064 42.7438 36.576 42.9934L34.5865 45.1593Z" fill="black"/>
<path d="M56.4663 43.2933C56.1801 43.5292 55.818 43.776 55.3773 44.0329C54.9367 44.299 54.4557 44.4809 53.9328 44.5787C53.4098 44.6766 52.8576 44.619 52.2752 44.4069C51.6973 44.1911 51.1168 43.7294 50.5325 43.0226L44.608 35.8491C44.0914 35.2238 43.7604 34.6213 43.6151 34.0407C43.4651 33.4546 43.4477 32.9198 43.5602 32.4352C43.6736 31.9506 43.8793 31.499 44.1783 31.0811C44.4727 30.6587 44.8 30.2985 45.1575 30.0032C46.1165 29.2105 46.9641 28.5394 47.7001 27.989C48.4315 27.4341 49.0797 26.9513 49.6457 26.5399C50.2208 26.1303 50.7373 25.7646 51.1963 25.4427L53.3641 28.0658L48.4727 32.1061C48.1481 32.374 47.9579 32.6574 47.9031 32.9564C47.8482 33.2544 47.9543 33.5662 48.2221 33.8908L49.4409 35.3655L54.6212 31.3801L56.6445 33.8295L51.7403 38.1495L52.8987 39.552C53.1191 39.8181 53.3303 39.99 53.5323 40.0677C53.7435 40.1454 53.9492 40.1628 54.1504 40.1198C54.3561 40.0722 54.5435 39.979 54.7127 39.8382L59.6909 35.7266L61.8459 38.3351C61.3659 38.8297 60.821 39.3692 60.2121 39.9543C59.6077 40.5349 58.9796 41.1109 58.3268 41.6832C57.6749 42.2464 57.0551 42.7831 56.4663 43.2933Z" fill="black"/>
<path d="M67.3709 35.2311L63.8134 37.3632L59.4359 19.8098L63.7531 17.2215L77.1703 29.3577L73.589 31.5045L71.21 29.259L66.496 32.0841L67.3709 35.2311ZM63.349 21.4976L65.4409 28.5084L68.5531 26.6423L63.349 21.4976Z" fill="black"/>
<path d="M83.3243 26.6917L79.6077 28.2615L72.8722 12.3191L79.5757 9.48755C80.2468 9.20412 80.9024 9.02583 81.5396 8.9536C82.1696 8.87863 82.7794 8.94812 83.3682 9.16389C83.957 9.37875 84.5129 9.77463 85.0368 10.3515C85.5579 10.923 86.0361 11.7239 86.4713 12.7543C86.7675 13.4546 86.9568 14.0809 87.04 14.6322C87.1204 15.1781 87.1213 15.6654 87.0436 16.0942C86.9714 16.5202 86.8416 16.8997 86.6541 17.2306C86.4667 17.5625 86.2564 17.8725 86.0242 18.1623L91.5291 23.2247L87.7522 24.8201L82.9686 20.1591C82.8242 20.2203 82.6605 20.2862 82.4786 20.3557C82.2939 20.4197 82.1184 20.4873 81.9501 20.5586C81.7764 20.6318 81.6 20.7067 81.4208 20.7826C81.2416 20.8585 81.0733 20.9298 80.917 20.9957L83.3243 26.6917ZM77.9968 14.0837L79.6772 18.0608L81.9958 17.0807C82.2564 16.971 82.4704 16.8393 82.6377 16.6866C82.8132 16.5376 82.9394 16.3511 83.0153 16.128C83.0829 15.9013 83.1012 15.6453 83.0692 15.3582C83.029 15.0683 82.9275 14.7328 82.7657 14.3506C82.602 13.963 82.4311 13.6558 82.2546 13.4309C82.0745 13.2142 81.8861 13.0679 81.6914 12.9938C81.4884 12.9161 81.2717 12.8878 81.0422 12.9097C80.8182 12.9289 80.576 12.9938 80.3154 13.1035L77.9968 14.0837Z" fill="black"/>
<path d="M98.3872 21.1849L94.5289 22.3634L89.4738 5.8112L93.333 4.63269L98.3872 21.1849Z" fill="black"/>
<path d="M105.165 19.8034L101.081 20.523L103.268 2.56458L108.225 1.69144L116.417 17.8222L112.304 18.5463L110.885 15.5996L105.473 16.5532L105.165 19.8034ZM106.319 5.54058L105.765 12.8357L109.34 12.2057L106.319 5.54058Z" fill="black"/>
<path d="M135.59 17.7344L130.561 17.5177L126.042 3.05176e-05L130.213 0.180145L133.283 13.2663L137.475 0.49283L141.599 0.670202L135.59 17.7344Z" fill="black"/>
<path d="M145.609 18.848L141.534 18.0745L149.938 2.0544L154.884 2.99337L156.833 20.9792L152.731 20.2002L152.447 16.9417L147.048 15.9168L145.609 18.848ZM151.739 5.91726L148.638 12.544L152.204 13.2206L151.739 5.91726Z" fill="black"/>
<path d="M163.213 23.1104L159.417 21.8011L165.059 5.44L168.08 6.48137L170.93 18.5417L174.344 8.64183L178.159 9.95657L172.517 26.3177L169.469 25.2672L166.618 13.2361L163.213 23.1104Z" fill="black"/>
<path d="M179.978 30.3223C179.028 29.8204 178.352 29.2178 177.947 28.5138C177.55 27.8135 177.365 27.0263 177.393 26.1531C177.422 25.2791 177.616 24.3383 177.979 23.328C178.34 22.3104 178.813 21.2453 179.399 20.1344C180.033 18.934 180.682 17.8944 181.346 17.0149C182.015 16.139 182.734 15.4706 183.503 15.0098C184.275 14.5436 185.14 14.3324 186.097 14.3762C187.053 14.4119 188.135 14.7493 189.347 15.3893C190.103 15.7888 190.756 16.1728 191.308 16.5413C191.859 16.9106 192.364 17.2873 192.821 17.6713C193.274 18.0526 193.733 18.4549 194.199 18.8791L192.742 21.6375C192.456 21.4373 192.092 21.1913 191.649 20.9006C191.203 20.6153 190.696 20.3017 190.131 19.9607C189.565 19.6188 188.96 19.2786 188.315 18.9376C187.487 18.5006 186.793 18.3077 186.233 18.3598C185.664 18.4146 185.135 18.7429 184.646 19.3445C184.153 19.9433 183.593 20.8348 182.967 22.0188C182.482 22.9358 182.127 23.7038 181.9 24.3228C181.667 24.939 181.554 25.4546 181.562 25.8706C181.566 26.2921 181.686 26.6432 181.922 26.9248C182.151 27.2027 182.472 27.4505 182.884 27.6672C183.417 27.9488 183.927 28.1755 184.411 28.3465C184.894 28.5093 185.284 28.6263 185.58 28.6967L186.865 26.2629L184.457 24.9911L185.949 22.165C186.27 22.2848 186.64 22.4375 187.061 22.624C187.482 22.8105 187.922 23.0117 188.384 23.2274C188.84 23.4405 189.254 23.6444 189.627 23.8409C190.105 24.0933 190.523 24.3218 190.885 24.5266C191.248 24.726 191.573 24.9189 191.858 25.1054L187.165 33.9904L184.482 32.5733L184.552 31.2887C184.062 31.328 183.393 31.2905 182.544 31.1762C181.7 31.0647 180.845 30.7804 179.978 30.3223Z" fill="black"/>
<path d="M195.534 40.1646C194.76 39.5941 194.084 39.0016 193.506 38.3881C192.926 37.7655 192.507 37.0962 192.246 36.3813C191.985 35.6654 191.937 34.9001 192.101 34.0837C192.265 33.2681 192.698 32.3849 193.4 31.4341L200.321 22.0498L203.568 24.4443L196.657 33.814C196.351 34.229 196.197 34.6295 196.192 35.0162C196.184 35.4085 196.309 35.7897 196.567 36.16C196.821 36.5349 197.191 36.9015 197.677 37.259C198.152 37.6101 198.607 37.8514 199.04 37.984C199.475 38.1248 199.876 38.1321 200.243 38.0041C200.612 37.8853 200.949 37.6192 201.254 37.2041L208.165 27.8354L211.411 30.2299L204.49 39.6142C203.789 40.565 203.076 41.2416 202.35 41.643C201.619 42.0407 200.87 42.219 200.105 42.1778C199.344 42.1403 198.587 41.9401 197.83 41.5771C197.078 41.2096 196.313 40.7387 195.534 40.1646Z" fill="black"/>
<path d="M205.243 48.2441L202.32 45.301L218.314 36.8448L221.861 40.416L213.295 56.3502L210.352 53.3879L211.961 50.5399L208.089 46.6405L205.243 48.2441ZM217.613 41.0478L211.308 44.7589L213.865 47.3344L217.613 41.0478Z" fill="black"/>
<path d="M217.354 61.686L214.94 58.453L228.806 48.0969L233.161 53.9273C233.597 54.5116 233.926 55.1049 234.149 55.7074C234.373 56.3008 234.45 56.9097 234.383 57.5333C234.315 58.1568 234.064 58.7913 233.628 59.4377C233.199 60.0805 232.536 60.736 231.64 61.4053C231.031 61.8606 230.468 62.1943 229.952 62.4073C229.441 62.6158 228.968 62.7337 228.534 62.7602C228.102 62.7922 227.704 62.7566 227.336 62.6542C226.97 62.5518 226.618 62.422 226.281 62.2656L222.684 68.8229L220.23 65.5378L223.611 59.7769C223.517 59.6508 223.415 59.5081 223.303 59.349C223.197 59.1854 223.089 59.0309 222.98 58.8846C222.867 58.7337 222.752 58.5801 222.636 58.4238C222.519 58.2674 222.41 58.1221 222.309 57.9858L217.354 61.686ZM228.32 53.4958L224.861 56.0786L226.367 58.0956C226.536 58.3223 226.715 58.4988 226.904 58.6249C227.091 58.7602 227.301 58.838 227.536 58.8581C227.772 58.87 228.026 58.8261 228.296 58.7255C228.568 58.6167 228.869 58.4384 229.202 58.1897C229.54 57.9374 229.797 57.6988 229.973 57.4729C230.14 57.2462 230.237 57.0286 230.263 56.821C230.289 56.6053 230.265 56.3877 230.189 56.171C230.117 55.9589 229.996 55.7385 229.827 55.5118L228.32 53.4958Z" fill="black"/>
<path d="M227.642 77.9127L224.067 71.3371L239.271 63.0702L242.847 69.6457C243.432 70.7227 243.719 71.7111 243.707 72.6107C243.702 73.5077 243.469 74.3497 243.01 75.136C242.553 75.9141 241.902 76.6363 241.056 77.3038C240.218 77.9739 239.253 78.6057 238.16 79.2009C236.415 80.149 234.877 80.7278 233.546 80.9362C232.218 81.1502 231.068 81.003 230.097 80.4937C229.121 79.9872 228.303 79.1269 227.642 77.9127ZM238.019 68.3438L229.166 73.1575L230.625 75.84C230.928 76.3977 231.325 76.7534 231.817 76.9088C232.306 77.0578 232.918 77.0258 233.653 76.8119C234.388 76.5979 235.252 76.2213 236.246 75.6809C237.19 75.168 237.926 74.699 238.455 74.2766C238.992 73.856 239.359 73.4665 239.557 73.1081C239.761 72.747 239.848 72.3995 239.817 72.0658C239.783 71.7266 239.67 71.3801 239.478 71.0272L238.019 68.3438Z" fill="black"/>
<path d="M232.644 89.0094L231.256 85.1008L249.328 84.2743L251.013 89.0185L236.466 99.7751L235.069 95.84L237.739 93.9511L235.9 88.7726L232.644 89.0094ZM246.9 87.7769L239.615 88.4443L240.829 91.8638L246.9 87.7769Z" fill="black"/>
<path d="M9.79109 171.576L7.55658 164.601L24.0384 159.322L26.1723 165.982C26.7227 167.7 26.7337 169.062 26.2043 170.07C25.6777 171.083 24.7259 171.811 23.3499 172.251C22.7154 172.454 22.1239 172.545 21.5762 172.522C21.0341 172.497 20.5486 172.373 20.1198 172.147C19.6955 171.914 19.3454 171.574 19.0702 171.128C19.0994 171.508 19.0674 171.901 18.9733 172.307C18.8846 172.711 18.7118 173.097 18.453 173.463C18.1943 173.829 17.8587 174.161 17.4455 174.459C17.0386 174.755 16.5385 174.997 15.9461 175.186C14.8507 175.537 13.9081 175.632 13.1163 175.47C12.331 175.305 11.6672 174.891 11.125 174.226C10.5902 173.566 10.1458 172.682 9.79109 171.576ZM15.7175 166.223L12.2258 167.342L13.1922 170.358C13.2974 170.687 13.4555 170.943 13.6658 171.127C13.8706 171.312 14.1202 171.423 14.4156 171.461C14.7173 171.496 15.0656 171.451 15.4606 171.323C15.8199 171.208 16.1052 171.048 16.3164 170.842C16.5276 170.635 16.6665 170.4 16.7333 170.134C16.8064 169.866 16.7899 169.568 16.6839 169.239L15.7175 166.223ZM21.8222 164.268L18.6267 165.291L19.5291 168.11C19.6517 168.493 19.9003 168.743 20.2743 168.861C20.6427 168.981 21.0569 168.967 21.5186 168.819C22.123 168.625 22.5015 168.366 22.6542 168.039C22.8014 167.715 22.8224 167.391 22.7191 167.068L21.8222 164.268Z" fill="black"/>
<path d="M14.8416 183.956L12.9874 180.246L30.8251 177.224L33.0743 181.727L19.9479 194.176L18.0818 190.44L20.5019 188.24L18.0453 183.324L14.8416 183.956ZM28.8421 180.997L21.6923 182.545L23.3143 185.792L28.8421 180.997Z" fill="black"/>
<path d="M24.5988 201.244L22.3085 197.923L36.5568 188.1L40.6875 194.09C41.1017 194.69 41.408 195.295 41.6073 195.907C41.8084 196.508 41.8633 197.119 41.7728 197.739C41.6813 198.359 41.4061 198.984 40.9462 199.614C40.4928 200.24 39.8052 200.87 38.8845 201.505C38.2582 201.936 37.6841 202.249 37.1602 202.442C36.6418 202.631 36.1654 202.731 35.7293 202.742C35.2969 202.757 34.9001 202.707 34.5371 202.59C34.1741 202.474 33.8276 202.331 33.4976 202.162L29.6548 208.579L27.327 205.202L30.9238 199.574C30.8342 199.445 30.7373 199.298 30.6322 199.134C30.5316 198.967 30.4301 198.808 30.3259 198.658C30.2189 198.502 30.1101 198.345 29.9995 198.185C29.8889 198.025 29.7856 197.874 29.6896 197.734L24.5988 201.244ZM35.8674 193.476L32.3126 195.926L33.7417 197.998C33.9026 198.231 34.0745 198.414 34.2573 198.547C34.4393 198.689 34.6468 198.775 34.8809 198.804C35.1168 198.825 35.3709 198.79 35.6452 198.701C35.9204 198.602 36.2294 198.436 36.5714 198.2C36.9179 197.961 37.184 197.732 37.3677 197.512C37.5442 197.292 37.6484 197.078 37.6822 196.872C37.717 196.657 37.7005 196.44 37.6329 196.219C37.5689 196.005 37.4564 195.781 37.2955 195.547L35.8674 193.476Z" fill="black"/>
<path d="M37.653 217.475L32.6976 212.081L45.4427 200.373L50.1751 205.523C51.3956 206.852 51.9771 208.083 51.9195 209.22C51.8665 210.361 51.3079 211.419 50.2436 212.398C49.7527 212.848 49.2544 213.179 48.7479 213.389C48.2459 213.595 47.7522 213.685 47.2685 213.659C46.7849 213.626 46.325 213.464 45.888 213.174C46.0736 213.507 46.2098 213.877 46.2948 214.286C46.3844 214.69 46.389 215.112 46.3076 215.554C46.2263 215.995 46.0608 216.437 45.8112 216.88C45.5661 217.318 45.2141 217.748 44.7552 218.17C43.9085 218.948 43.0921 219.429 42.3058 219.613C41.5241 219.793 40.7479 219.696 39.9762 219.322C39.2137 218.947 38.4393 218.331 37.653 217.475ZM40.7863 210.129L38.0864 212.61L40.2285 214.942C40.4626 215.196 40.7131 215.363 40.9819 215.441C41.2452 215.524 41.5186 215.52 41.8029 215.429C42.0919 215.335 42.389 215.147 42.6935 214.866C42.9714 214.611 43.1625 214.346 43.2676 214.07C43.3728 213.794 43.4002 213.521 43.349 213.253C43.3024 212.98 43.1625 212.716 42.9293 212.462L40.7863 210.129ZM45.5067 205.793L43.0354 208.063L45.0377 210.243C45.3101 210.539 45.6402 210.661 46.0297 210.611C46.4137 210.565 46.7849 210.379 47.1405 210.052C47.6077 209.622 47.8427 209.228 47.8445 208.867C47.8418 208.511 47.7257 208.208 47.4962 207.958L45.5067 205.793Z" fill="black"/>
<path d="M48.2962 227.581C48.0101 227.345 47.6992 227.035 47.3646 226.652C47.0199 226.27 46.7511 225.831 46.5563 225.337C46.3616 224.842 46.3141 224.289 46.411 223.676C46.5134 223.068 46.8571 222.411 47.4414 221.703L53.3669 214.53C53.8834 213.904 54.4128 213.466 54.9559 213.214C55.5026 212.956 56.0247 212.837 56.5221 212.857C57.0194 212.876 57.5013 212.993 57.9685 213.208C58.4393 213.417 58.8535 213.67 59.2119 213.967C60.171 214.759 60.9902 215.464 61.6704 216.082C62.3534 216.696 62.9504 217.242 63.4596 217.72C63.9707 218.207 64.427 218.645 64.8311 219.035L62.6633 221.659L57.7728 217.619C57.4482 217.351 57.1346 217.218 56.8302 217.22C56.5266 217.221 56.2414 217.385 55.9735 217.71L54.7547 219.185L59.6471 223.52L57.6238 225.969L52.4553 221.968L51.2969 223.372C51.0766 223.638 50.9476 223.878 50.9102 224.091C50.8736 224.314 50.8955 224.519 50.9751 224.708C51.0601 224.901 51.1881 225.067 51.3582 225.207L56.3365 229.319L54.1806 231.929C53.6046 231.55 52.9719 231.118 52.2825 230.63C51.5977 230.146 50.9138 229.637 50.229 229.104C49.5534 228.571 48.9088 228.063 48.2962 227.581Z" fill="black"/>
<path d="M60.9216 236.514L57.3641 234.382L70.7813 222.245L75.0985 224.834L70.7209 242.387L67.1388 240.24L67.9973 237.084L63.2841 234.259L60.9216 236.514ZM71.1369 226.492L65.9401 231.643L69.0533 233.508L71.1369 226.492Z" fill="black"/>
<path d="M78.4411 245.849L74.7245 244.279L81.4601 228.336L88.1636 231.168C88.8347 231.451 89.4189 231.797 89.9154 232.205C90.4082 232.604 90.7831 233.09 91.04 233.662C91.296 234.235 91.4002 234.909 91.3508 235.687C91.3042 236.459 91.0637 237.36 90.6285 238.39C90.3323 239.09 90.016 239.663 89.6777 240.107C89.3421 240.545 88.9938 240.886 88.6327 241.128C88.277 241.373 87.914 241.544 87.5456 241.642C87.1771 241.739 86.8087 241.805 86.4393 241.84L86.6468 249.316L82.8699 247.719L82.8772 241.04C82.7328 240.979 82.5719 240.908 82.3945 240.827C82.2199 240.739 82.0489 240.66 81.8816 240.589C81.7079 240.516 81.5314 240.441 81.3513 240.366C81.1721 240.29 81.0039 240.219 80.8484 240.153L78.4411 245.849ZM83.7687 233.241L82.0882 237.218L84.4068 238.197C84.6674 238.307 84.9106 238.369 85.1364 238.383C85.3659 238.405 85.5872 238.365 85.8002 238.264C86.0105 238.155 86.2061 237.989 86.3899 237.766C86.5691 237.535 86.7401 237.229 86.901 236.847C87.0647 236.459 87.1661 236.123 87.2036 235.838C87.2338 235.557 87.2073 235.322 87.125 235.13C87.0391 234.929 86.9083 234.755 86.7319 234.606C86.5618 234.459 86.3469 234.331 86.0864 234.22L83.7687 233.241Z" fill="black"/>
<path d="M94.7236 251.797L90.8644 250.619L95.9195 234.066L99.7778 235.245L94.7236 251.797Z" fill="black"/>
<path d="M102.989 253.535L98.9037 252.816L107.096 236.686L112.053 237.559L114.24 255.517L110.128 254.792L109.801 251.538L104.389 250.585L102.989 253.535ZM108.946 240.524L105.935 247.191L109.509 247.821L108.946 240.524Z" fill="black"/>
<path d="M136.13 255.783L131.101 256L125.092 238.936L129.264 238.757L133.446 251.53L136.525 238.444L140.65 238.266L136.13 255.783Z" fill="black"/>
<path d="M147.949 254.46L143.874 255.235L145.823 237.248L150.768 236.31L159.173 252.33L155.07 253.109L153.613 250.181L148.213 251.206L147.949 254.46ZM148.913 240.183L148.457 247.485L152.023 246.808L148.913 240.183Z" fill="black"/>
<path d="M167.302 249.734L163.506 251.043L157.865 234.682L160.886 233.639L170.565 241.381L167.151 231.48L170.965 230.164L176.606 246.526L173.559 247.577L163.898 239.86L167.302 249.734Z" fill="black"/>
<path d="M185.943 241.955C184.993 242.457 184.113 242.676 183.305 242.612C182.502 242.545 181.748 242.255 181.042 241.74C180.336 241.224 179.669 240.532 179.04 239.664C178.402 238.792 177.789 237.801 177.202 236.689C176.569 235.489 176.075 234.367 175.723 233.324C175.376 232.277 175.229 231.307 175.283 230.411C175.333 229.51 175.646 228.677 176.222 227.911C176.79 227.142 177.68 226.438 178.891 225.798C179.647 225.398 180.333 225.075 180.948 224.828C181.563 224.582 182.16 224.377 182.735 224.215C183.304 224.056 183.896 223.904 184.508 223.759L185.966 226.517C185.639 226.64 185.232 226.802 184.741 227.004C184.253 227.212 183.709 227.453 183.109 227.728C182.508 228.003 181.884 228.31 181.24 228.651C180.411 229.088 179.861 229.553 179.589 230.045C179.313 230.546 179.286 231.168 179.508 231.911C179.724 232.657 180.145 233.622 180.77 234.805C181.254 235.722 181.688 236.449 182.071 236.986C182.448 237.525 182.811 237.909 183.159 238.138C183.51 238.372 183.867 238.47 184.232 238.434C184.592 238.401 184.976 238.276 185.388 238.058C185.921 237.776 186.395 237.483 186.811 237.179C187.216 236.872 187.533 236.616 187.759 236.411L186.473 233.978L184.065 235.25L182.572 232.424C182.852 232.227 183.186 232.007 183.578 231.765C183.969 231.523 184.383 231.272 184.822 231.013C185.254 230.756 185.658 230.529 186.03 230.332C186.508 230.08 186.933 229.862 187.305 229.68C187.675 229.491 188.017 229.332 188.332 229.201L193.025 238.086L190.341 239.504L189.32 238.722C189.077 239.149 188.668 239.681 188.095 240.317C187.527 240.951 186.81 241.497 185.943 241.955Z" fill="black"/>
<path d="M203.115 231.098C202.341 231.668 201.575 232.139 200.818 232.51C200.052 232.88 199.289 233.083 198.528 233.121C197.767 233.158 197.021 232.978 196.291 232.581C195.56 232.183 194.843 231.508 194.143 230.558L187.222 221.174L190.469 218.779L197.379 228.148C197.685 228.563 198.021 228.829 198.39 228.948C198.762 229.072 199.163 229.065 199.593 228.927C200.026 228.795 200.486 228.549 200.972 228.192C201.447 227.841 201.812 227.479 202.066 227.103C202.33 226.729 202.455 226.348 202.441 225.96C202.437 225.573 202.281 225.172 201.976 224.757L195.066 215.388L198.313 212.994L205.234 222.378C205.936 223.329 206.371 224.21 206.54 225.022C206.704 225.838 206.653 226.606 206.387 227.324C206.127 228.04 205.712 228.705 205.142 229.32C204.569 229.93 203.893 230.523 203.115 231.098Z" fill="black"/>
<path d="M214.145 221.58L211.222 224.523L202.655 208.589L206.203 205.017L222.195 213.474L219.253 216.437L216.395 214.847L212.522 218.747L214.145 221.58ZM206.864 209.261L210.618 215.54L213.176 212.965L206.864 209.261Z" fill="black"/>
<path d="M227.406 206.805L224.991 210.038L211.125 199.681L215.48 193.851C215.916 193.266 216.391 192.783 216.906 192.398C217.412 192.015 217.973 191.767 218.589 191.655C219.206 191.544 219.887 191.604 220.63 191.838C221.368 192.068 222.185 192.518 223.081 193.187C223.69 193.642 224.17 194.086 224.521 194.521C224.867 194.951 225.114 195.371 225.263 195.781C225.415 196.185 225.495 196.578 225.5 196.958C225.506 197.339 225.482 197.713 225.427 198.08L232.736 199.668L230.282 202.953L223.8 201.347C223.706 201.473 223.598 201.612 223.476 201.765C223.349 201.913 223.232 202.061 223.122 202.206C223.01 202.357 222.895 202.511 222.778 202.667C222.661 202.823 222.553 202.969 222.451 203.105L227.406 206.805ZM216.439 198.615L219.898 201.199L221.404 199.182C221.573 198.955 221.692 198.734 221.759 198.517C221.835 198.299 221.85 198.075 221.803 197.844C221.747 197.615 221.633 197.384 221.461 197.153C221.28 196.923 221.023 196.685 220.69 196.436C220.353 196.184 220.051 196.006 219.784 195.901C219.519 195.805 219.283 195.774 219.077 195.808C218.862 195.844 218.661 195.929 218.474 196.064C218.291 196.194 218.115 196.372 217.946 196.598L216.439 198.615Z" fill="black"/>
<path d="M238.663 189.063L235.088 195.639L219.884 187.372L223.459 180.797C224.044 179.72 224.718 178.942 225.479 178.462C226.235 177.979 227.068 177.717 227.978 177.675C228.88 177.636 229.84 177.789 230.86 178.137C231.878 178.475 232.933 178.942 234.026 179.536C235.771 180.484 237.093 181.46 237.992 182.465C238.895 183.463 239.396 184.508 239.495 185.6C239.601 186.694 239.323 187.849 238.663 189.063ZM224.991 185.557L233.844 190.37L235.302 187.687C235.606 187.13 235.688 186.602 235.551 186.106C235.41 185.615 235.051 185.118 234.471 184.617C233.893 184.116 233.106 183.596 232.112 183.056C231.168 182.543 230.375 182.179 229.734 181.966C229.089 181.744 228.562 181.647 228.153 181.675C227.739 181.7 227.4 181.817 227.137 182.024C226.871 182.237 226.641 182.521 226.449 182.874L224.991 185.557Z" fill="black"/>
<path d="M244.465 176.173L243.077 180.081L228.532 169.325L230.216 164.581L248.289 165.407L246.891 169.342L243.628 169.124L241.788 174.302L244.465 176.173ZM232.624 168.137L238.699 172.215L239.913 168.795L232.624 168.137Z" fill="black"/>
<path d="M2.5545 130.492C2.5545 126.808 5.54148 123.822 9.22513 123.821C12.9097 123.821 15.8958 126.808 15.8958 130.492C15.8958 134.177 12.9088 137.163 9.22513 137.163C5.54056 137.163 2.5545 134.176 2.5545 130.492Z" fill="black"/>
<path d="M240.104 130.492C240.104 126.808 243.091 123.822 246.775 123.821C250.459 123.821 253.445 126.808 253.445 130.492C253.445 134.177 250.459 137.163 246.775 137.163C243.09 137.163 240.104 134.176 240.104 130.492Z" fill="black"/>
</g>
<defs>
<clipPath id="clip0_6_32">
<rect width="256" height="256" fill="white"/>
</clipPath>
<clipPath id="clip1_6_32">
<rect width="96.133" height="120.68" fill="white" transform="translate(79.9335 67.6602)"/>
</clipPath>
<clipPath id="clip2_6_32">
<rect width="96.133" height="120.68" fill="white" transform="translate(79.9335 67.6602)"/>
</clipPath>
</defs>
</svg>
