<svg width="100" height="8" viewBox="0 0 100 8" fill="none" xmlns="http://www.w3.org/2000/svg">
<g id="Vector">
<path d="M0.401538 3.80878C0.401538 5.70198 2.01964 7.23668 4.01558 7.23668C6.01153 7.23668 7.62963 5.70198 7.62963 3.80878C7.62963 1.91558 6.01153 0.380898 4.01558 0.380898C2.01964 0.380898 0.401538 1.91558 0.401538 3.80878ZM0 3.80878C0 1.70526 1.79782 0 4.01558 0C6.23334 0 8.03117 1.70526 8.03117 3.80878C8.03117 5.91226 6.23334 7.61758 4.01558 7.61758C1.79782 7.61758 0 5.91226 0 3.80878Z" fill="black"/>
<path d="M11.2588 3.80878C11.2588 5.53726 12.7361 6.93867 14.5585 6.93867C16.381 6.93867 17.8583 5.53726 17.8583 3.80878C17.8583 2.08026 16.381 0.678871 14.5585 0.678871C12.7361 0.678871 11.2588 2.08026 11.2588 3.80878ZM10.8921 3.80878C10.8921 1.88819 12.5337 0.331169 14.5585 0.331169C16.5834 0.331169 18.2249 1.88819 18.2249 3.80878C18.2249 5.72937 16.5834 7.28637 14.5585 7.28637C12.5337 7.28637 10.8921 5.72937 10.8921 3.80878Z" fill="black"/>
<path d="M22.116 3.80878C22.116 5.37276 23.4527 6.64046 25.1015 6.64046C26.7503 6.64046 28.0869 5.37276 28.0869 3.80878C28.0869 2.24476 26.7503 0.977066 25.1015 0.977066C23.4527 0.977066 22.116 2.24476 22.116 3.80878ZM21.7842 3.80878C21.7842 2.07108 23.2694 0.662376 25.1015 0.662376C26.9335 0.662376 28.4187 2.07108 28.4187 3.80878C28.4187 5.54648 26.9335 6.9552 25.1015 6.9552C23.2694 6.9552 21.7842 5.54648 21.7842 3.80878Z" fill="black"/>
<path d="M32.9731 3.80878C32.9731 5.20808 34.1691 6.3425 35.6444 6.3425C37.1197 6.3425 38.3157 5.20808 38.3157 3.80878C38.3157 2.40948 37.1197 1.27508 35.6444 1.27508C34.1691 1.27508 32.9731 2.40948 32.9731 3.80878ZM32.6764 3.80878C32.6764 2.25398 34.0052 0.993584 35.6444 0.993584C37.2836 0.993584 38.6125 2.25398 38.6125 3.80878C38.6125 5.36358 37.2836 6.62399 35.6444 6.62399C34.0052 6.62399 32.6764 5.36358 32.6764 3.80878Z" fill="black"/>
<path d="M43.8304 3.80878C43.8304 5.04347 44.8856 6.04438 46.1874 6.04438C47.4891 6.04438 48.5443 5.04347 48.5443 3.80878C48.5443 2.57409 47.4891 1.57316 46.1874 1.57316C44.8856 1.57316 43.8304 2.57409 43.8304 3.80878ZM43.5685 3.80878C43.5685 2.43687 44.741 1.32477 46.1874 1.32477C47.6337 1.32477 48.8062 2.43687 48.8062 3.80878C48.8062 5.18065 47.6337 6.29277 46.1874 6.29277C44.741 6.29277 43.5685 5.18065 43.5685 3.80878Z" fill="black"/>
<path d="M54.6876 3.80878C54.6876 4.87878 55.6022 5.74628 56.7303 5.74628C57.8584 5.74628 58.773 4.87878 58.773 3.80878C58.773 2.73878 57.8584 1.87128 56.7303 1.87128C55.6022 1.87128 54.6876 2.73878 54.6876 3.80878ZM54.4606 3.80878C54.4606 2.61976 55.4767 1.65598 56.7303 1.65598C57.9839 1.65598 59 2.61976 59 3.80878C59 4.99776 57.9839 5.9616 56.7303 5.9616C55.4767 5.9616 54.4606 4.99776 54.4606 3.80878Z" fill="black"/>
<path d="M65.5447 3.80878C65.5447 4.71429 66.3186 5.44828 67.2732 5.44828C68.2279 5.44828 69.0017 4.71429 69.0017 3.80878C69.0017 2.90327 68.2279 2.1693 67.2732 2.1693C66.3186 2.1693 65.5447 2.90327 65.5447 3.80878ZM65.3527 3.80878C65.3527 2.80269 66.2125 1.98719 67.2732 1.98719C68.334 1.98719 69.1937 2.80269 69.1937 3.80878C69.1937 4.81487 68.334 5.63039 67.2732 5.63039C66.2125 5.63039 65.3527 4.81487 65.3527 3.80878Z" fill="black"/>
<path d="M76.4019 3.80878C76.4019 4.54956 77.0351 5.1502 77.8162 5.1502C78.5972 5.1502 79.2304 4.54956 79.2304 3.80878C79.2304 3.06796 78.5972 2.46738 77.8162 2.46738C77.0351 2.46738 76.4019 3.06796 76.4019 3.80878ZM76.2449 3.80878C76.2449 2.98565 76.9484 2.3184 77.8162 2.3184C78.684 2.3184 79.3875 2.98565 79.3875 3.80878C79.3875 4.63187 78.684 5.29918 77.8162 5.29918C76.9484 5.29918 76.2449 4.63187 76.2449 3.80878Z" fill="black"/>
<path d="M87.2592 3.80878C87.2592 4.38499 87.7516 4.85207 88.3591 4.85207C88.9666 4.85207 89.4591 4.38499 89.4591 3.80878C89.4591 3.23257 88.9666 2.76546 88.3591 2.76546C87.7516 2.76546 87.2592 3.23257 87.2592 3.80878ZM87.137 3.80878C87.137 3.16858 87.6842 2.64957 88.3591 2.64957C89.0341 2.64957 89.5813 3.16858 89.5813 3.80878C89.5813 4.44898 89.0341 4.96796 88.3591 4.96796C87.6842 4.96796 87.137 4.44898 87.137 3.80878Z" fill="black"/>
<path d="M98.1164 3.80878C98.1164 4.22026 98.4682 4.55399 98.9021 4.55399C99.3359 4.55399 99.6877 4.22026 99.6877 3.80878C99.6877 3.39726 99.3359 3.06358 98.9021 3.06358C98.4682 3.06358 98.1164 3.39726 98.1164 3.80878ZM98.0291 3.80878C98.0291 3.35148 98.4199 2.98077 98.9021 2.98077C99.3842 2.98077 99.775 3.35148 99.775 3.80878C99.775 4.26608 99.3842 4.6368 98.9021 4.6368C98.4199 4.6368 98.0291 4.26608 98.0291 3.80878Z" fill="black"/>
</g>
</svg>
