<svg width="108" height="103" viewBox="0 0 108 103" fill="none" xmlns="http://www.w3.org/2000/svg">
<path d="M6.67199 5.346C6.67199 5.7576 7.02374 6.0912 7.45764 6.0912C7.89155 6.0912 8.24331 5.7576 8.24331 5.346C8.24331 4.9344 7.89155 4.6008 7.45764 4.6008C7.02374 4.6008 6.67199 4.9344 6.67199 5.346ZM6.58472 5.346C6.58472 4.8887 6.97555 4.518 7.45764 4.518C7.93974 4.518 8.33057 4.8887 8.33057 5.346C8.33057 5.8033 7.93974 6.174 7.45764 6.174C6.97555 6.174 6.58472 5.8033 6.58472 5.346Z" fill="black"/>
<path d="M6.35776 15.346C6.35776 15.9222 6.85019 16.3893 7.45764 16.3893C8.0651 16.3893 8.55753 15.9222 8.55753 15.346C8.55753 14.7698 8.0651 14.3027 7.45764 14.3027C6.85019 14.3027 6.35776 14.7698 6.35776 15.346ZM6.23553 15.346C6.23553 14.7058 6.78269 14.1868 7.45764 14.1868C8.1326 14.1868 8.67976 14.7058 8.67976 15.346C8.67976 15.9862 8.1326 16.5052 7.45764 16.5052C6.78269 16.5052 6.23553 15.9862 6.23553 15.346Z" fill="black"/>
<path d="M6.04345 25.346C6.04345 26.0868 6.6766 26.6874 7.45764 26.6874C8.23869 26.6874 8.87184 26.0868 8.87184 25.346C8.87184 24.6052 8.23869 24.0046 7.45764 24.0046C6.6766 24.0046 6.04345 24.6052 6.04345 25.346ZM5.88634 25.346C5.88634 24.5229 6.58983 23.8556 7.45764 23.8556C8.32547 23.8556 9.02895 24.5229 9.02895 25.346C9.02895 26.1691 8.32547 26.8364 7.45764 26.8364C6.58983 26.8364 5.88634 26.1691 5.88634 25.346Z" fill="black"/>
<path d="M5.72918 35.346C5.72918 36.2514 6.50305 36.9855 7.45764 36.9855C8.41223 36.9855 9.18611 36.2514 9.18611 35.346C9.18611 34.4406 8.41223 33.7065 7.45764 33.7065C6.50305 33.7065 5.72918 34.4406 5.72918 35.346ZM5.53718 35.346C5.53718 34.3399 6.39697 33.5244 7.45764 33.5244C8.51832 33.5244 9.37811 34.3399 9.37811 35.346C9.37811 36.3521 8.51832 37.1676 7.45764 37.1676C6.39697 37.1676 5.53718 36.3521 5.53718 35.346Z" fill="black"/>
<path d="M5.41495 45.346C5.41495 46.416 6.32947 47.2835 7.45764 47.2835C8.58582 47.2835 9.50034 46.416 9.50034 45.346C9.50034 44.276 8.58582 43.4085 7.45764 43.4085C6.32947 43.4085 5.41495 44.276 5.41495 45.346ZM5.18799 45.346C5.18799 44.157 6.20414 43.1932 7.45764 43.1932C8.71115 43.1932 9.7273 44.157 9.7273 45.346C9.7273 46.535 8.71115 47.4988 7.45764 47.4988C6.20414 47.4988 5.18799 46.535 5.18799 45.346Z" fill="black"/>
<path d="M5.10068 55.346C5.10068 56.5807 6.15592 57.5816 7.45764 57.5816C8.75937 57.5816 9.81461 56.5807 9.81461 55.346C9.81461 54.1113 8.75937 53.1104 7.45764 53.1104C6.15592 53.1104 5.10068 54.1113 5.10068 55.346ZM4.8388 55.346C4.8388 53.9741 6.01129 52.862 7.45764 52.862C8.90401 52.862 10.0765 53.9741 10.0765 55.346C10.0765 56.7179 8.90401 57.83 7.45764 57.83C6.01129 57.83 4.8388 56.7179 4.8388 55.346Z" fill="black"/>
<path d="M4.78641 65.346C4.78641 66.7453 5.98233 67.8797 7.45765 67.8797C8.93296 67.8797 10.1289 66.7453 10.1289 65.346C10.1289 63.9467 8.93296 62.8123 7.45765 62.8123C5.98233 62.8123 4.78641 63.9467 4.78641 65.346ZM4.4896 65.346C4.4896 63.7912 5.81843 62.5308 7.45765 62.5308C9.09686 62.5308 10.4257 63.7912 10.4257 65.346C10.4257 66.9008 9.09686 68.1612 7.45765 68.1612C5.81843 68.1612 4.4896 66.9008 4.4896 65.346Z" fill="black"/>
<path d="M4.47214 75.346C4.47214 76.91 5.80882 78.1777 7.45764 78.1777C9.10647 78.1777 10.4432 76.91 10.4432 75.346C10.4432 73.782 9.10647 72.5143 7.45764 72.5143C5.80882 72.5143 4.47214 73.782 4.47214 75.346ZM4.1404 75.346C4.1404 73.6083 5.6256 72.1996 7.45764 72.1996C9.28969 72.1996 10.7749 73.6083 10.7749 75.346C10.7749 77.0837 9.28969 78.4924 7.45764 78.4924C5.6256 78.4924 4.1404 77.0837 4.1404 75.346Z" fill="black"/>
<path d="M4.15787 85.346C4.15787 87.0745 5.63524 88.4759 7.45764 88.4759C9.28004 88.4759 10.7574 87.0745 10.7574 85.346C10.7574 83.6175 9.28004 82.2161 7.45764 82.2161C5.63524 82.2161 4.15787 83.6175 4.15787 85.346ZM3.79125 85.346C3.79125 83.4254 5.43275 81.8684 7.45764 81.8684C9.48255 81.8684 11.124 83.4254 11.124 85.346C11.124 87.2666 9.48255 88.8236 7.45764 88.8236C5.43275 88.8236 3.79125 87.2666 3.79125 85.346Z" fill="black"/>
<path d="M3.8436 95.346C3.8436 97.2392 5.4617 98.7739 7.45764 98.7739C9.45359 98.7739 11.0717 97.2392 11.0717 95.346C11.0717 93.4528 9.45359 91.9181 7.45764 91.9181C5.4617 91.9181 3.8436 93.4528 3.8436 95.346ZM3.44206 95.346C3.44206 93.2425 5.23988 91.5372 7.45764 91.5372C9.6754 91.5372 11.4732 93.2425 11.4732 95.346C11.4732 97.4495 9.6754 99.1548 7.45764 99.1548C5.23988 99.1548 3.44206 97.4495 3.44206 95.346Z" fill="black"/>
<path d="M17.2832 5.346C17.2832 5.7218 17.6044 6.0264 18.0006 6.0264C18.3968 6.0264 18.7179 5.7218 18.7179 5.346C18.7179 4.9702 18.3968 4.6656 18.0006 4.6656C17.6044 4.6656 17.2832 4.9702 17.2832 5.346ZM17.2035 5.346C17.2035 4.9285 17.5604 4.59 18.0006 4.59C18.4408 4.59 18.7976 4.9285 18.7976 5.346C18.7976 5.7635 18.4408 6.10199 18.0006 6.10199C17.5604 6.10199 17.2035 5.7635 17.2035 5.346Z" fill="black"/>
<path d="M16.9964 15.346C16.9964 15.8721 17.4459 16.2985 18.0006 16.2985C18.5553 16.2985 19.0048 15.8721 19.0048 15.346C19.0048 14.8199 18.5553 14.3935 18.0006 14.3935C17.4459 14.3935 16.9964 14.8199 16.9964 15.346ZM16.8847 15.346C16.8847 14.7615 17.3843 14.2876 18.0006 14.2876C18.6168 14.2876 19.1165 14.7615 19.1165 15.346C19.1165 15.9305 18.6168 16.4044 18.0006 16.4044C17.3843 16.4044 16.8847 15.9305 16.8847 15.346Z" fill="black"/>
<path d="M16.7094 25.346C16.7094 26.0224 17.2875 26.5707 18.0006 26.5707C18.7137 26.5707 19.2918 26.0224 19.2918 25.346C19.2918 24.6696 18.7137 24.1213 18.0006 24.1213C17.2875 24.1213 16.7094 24.6696 16.7094 25.346ZM16.5659 25.346C16.5659 24.5944 17.2082 23.9852 18.0006 23.9852C18.793 23.9852 19.4353 24.5944 19.4353 25.346C19.4353 26.0976 18.793 26.7068 18.0006 26.7068C17.2082 26.7068 16.5659 26.0976 16.5659 25.346Z" fill="black"/>
<path d="M16.4224 35.346C16.4224 36.1727 17.129 36.8429 18.0006 36.8429C18.8722 36.8429 19.5788 36.1727 19.5788 35.346C19.5788 34.5193 18.8722 33.8491 18.0006 33.8491C17.129 33.8491 16.4224 34.5193 16.4224 35.346ZM16.2471 35.346C16.2471 34.4274 17.0321 33.6828 18.0006 33.6828C18.9691 33.6828 19.7541 34.4274 19.7541 35.346C19.7541 36.2646 18.9691 37.0092 18.0006 37.0092C17.0321 37.0092 16.2471 36.2646 16.2471 35.346Z" fill="black"/>
<path d="M16.1355 45.346C16.1355 46.3231 16.9705 47.115 18.0006 47.115C19.0306 47.115 19.8656 46.3231 19.8656 45.346C19.8656 44.3689 19.0306 43.577 18.0006 43.577C16.9705 43.577 16.1355 44.3689 16.1355 45.346ZM15.9283 45.346C15.9283 44.2605 16.8562 43.3804 18.0006 43.3804C19.145 43.3804 20.0729 44.2605 20.0729 45.346C20.0729 46.4315 19.145 47.3116 18.0006 47.3116C16.8562 47.3116 15.9283 46.4315 15.9283 45.346Z" fill="black"/>
<path d="M15.8486 55.346C15.8486 56.4733 16.8121 57.3872 18.0006 57.3872C19.1891 57.3872 20.1526 56.4733 20.1526 55.346C20.1526 54.2187 19.1891 53.3048 18.0006 53.3048C16.8121 53.3048 15.8486 54.2187 15.8486 55.346ZM15.6094 55.346C15.6094 54.0935 16.68 53.078 18.0006 53.078C19.3212 53.078 20.3917 54.0935 20.3917 55.346C20.3917 56.5985 19.3212 57.614 18.0006 57.614C16.68 57.614 15.6094 56.5985 15.6094 55.346Z" fill="black"/>
<path d="M15.5616 65.346C15.5616 66.6236 16.6536 67.6594 18.0006 67.6594C19.3476 67.6594 20.4396 66.6236 20.4396 65.346C20.4396 64.0684 19.3476 63.0326 18.0006 63.0326C16.6536 63.0326 15.5616 64.0684 15.5616 65.346ZM15.2906 65.346C15.2906 63.9264 16.5039 62.7756 18.0006 62.7756C19.4973 62.7756 20.7105 63.9264 20.7105 65.346C20.7105 66.7656 19.4973 67.9164 18.0006 67.9164C16.5039 67.9164 15.2906 66.7656 15.2906 65.346Z" fill="black"/>
<path d="M15.2747 75.346C15.2747 76.7739 16.4952 77.9315 18.0006 77.9315C19.506 77.9315 20.7265 76.7739 20.7265 75.346C20.7265 73.9181 19.506 72.7605 18.0006 72.7605C16.4952 72.7605 15.2747 73.9181 15.2747 75.346ZM14.9718 75.346C14.9718 73.7594 16.3278 72.4732 18.0006 72.4732C19.6733 72.4732 21.0294 73.7594 21.0294 75.346C21.0294 76.9326 19.6733 78.2188 18.0006 78.2188C16.3278 78.2188 14.9718 76.9326 14.9718 75.346Z" fill="black"/>
<path d="M14.9877 85.346C14.9877 86.9242 16.3366 88.2037 18.0006 88.2037C19.6646 88.2037 21.0134 86.9242 21.0134 85.346C21.0134 83.7678 19.6646 82.4883 18.0006 82.4883C16.3366 82.4883 14.9877 83.7678 14.9877 85.346ZM14.653 85.346C14.653 83.5924 16.1518 82.1708 18.0006 82.1708C19.8494 82.1708 21.3482 83.5924 21.3482 85.346C21.3482 87.0996 19.8494 88.5212 18.0006 88.5212C16.1518 88.5212 14.653 87.0996 14.653 85.346Z" fill="black"/>
<path d="M14.7009 95.346C14.7009 97.0745 16.1781 98.4759 18.0006 98.4759C19.823 98.4759 21.3003 97.0745 21.3003 95.346C21.3003 93.6175 19.823 92.2161 18.0006 92.2161C16.1781 92.2161 14.7009 93.6175 14.7009 95.346ZM14.3342 95.346C14.3342 93.4254 15.9757 91.8684 18.0006 91.8684C20.0255 91.8684 21.667 93.4254 21.667 95.346C21.667 97.2666 20.0255 98.8236 18.0006 98.8236C15.9757 98.8236 14.3342 97.2666 14.3342 95.346Z" fill="black"/>
<path d="M27.8945 5.346C27.8945 5.686 28.1851 5.96159 28.5435 5.96159C28.902 5.96159 29.1926 5.686 29.1926 5.346C29.1926 5.006 28.902 4.7304 28.5435 4.7304C28.1851 4.7304 27.8945 5.006 27.8945 5.346ZM27.8224 5.346C27.8224 4.9682 28.1452 4.66199 28.5435 4.66199C28.9418 4.66199 29.2647 4.9682 29.2647 5.346C29.2647 5.7238 28.9418 6.03 28.5435 6.03C28.1452 6.03 27.8224 5.7238 27.8224 5.346Z" fill="black"/>
<path d="M27.6349 15.346C27.6349 15.822 28.0417 16.2078 28.5435 16.2078C29.0454 16.2078 29.4521 15.822 29.4521 15.346C29.4521 14.87 29.0454 14.4842 28.5435 14.4842C28.0417 14.4842 27.6349 14.87 27.6349 15.346ZM27.5339 15.346C27.5339 14.8171 27.9859 14.3884 28.5435 14.3884C29.1011 14.3884 29.5531 14.8171 29.5531 15.346C29.5531 15.8749 29.1011 16.3036 28.5435 16.3036C27.9859 16.3036 27.5339 15.8749 27.5339 15.346Z" fill="black"/>
<path d="M27.3753 25.346C27.3753 25.958 27.8983 26.4541 28.5435 26.4541C29.1888 26.4541 29.7118 25.958 29.7118 25.346C29.7118 24.734 29.1888 24.2379 28.5435 24.2379C27.8983 24.2379 27.3753 24.734 27.3753 25.346ZM27.2455 25.346C27.2455 24.666 27.8266 24.1148 28.5435 24.1148C29.2604 24.1148 29.8416 24.666 29.8416 25.346C29.8416 26.026 29.2604 26.5772 28.5435 26.5772C27.8266 26.5772 27.2455 26.026 27.2455 25.346Z" fill="black"/>
<path d="M27.1157 35.346C27.1157 36.0939 27.755 36.7003 28.5435 36.7003C29.332 36.7003 29.9714 36.0939 29.9714 35.346C29.9714 34.5981 29.332 33.9917 28.5435 33.9917C27.755 33.9917 27.1157 34.5981 27.1157 35.346ZM26.957 35.346C26.957 34.5149 27.6673 33.8412 28.5435 33.8412C29.4198 33.8412 30.13 34.5149 30.13 35.346C30.13 36.1771 29.4198 36.8508 28.5435 36.8508C27.6673 36.8508 26.957 36.1771 26.957 35.346Z" fill="black"/>
<path d="M26.8561 45.346C26.8561 46.23 27.6115 46.9466 28.5435 46.9466C29.4755 46.9466 30.231 46.23 30.231 45.346C30.231 44.462 29.4755 43.7454 28.5435 43.7454C27.6115 43.7454 26.8561 44.462 26.8561 45.346ZM26.6686 45.346C26.6686 44.3638 27.508 43.5676 28.5435 43.5676C29.5791 43.5676 30.4185 44.3638 30.4185 45.346C30.4185 46.3282 29.5791 47.1244 28.5435 47.1244C27.508 47.1244 26.6686 46.3282 26.6686 45.346Z" fill="black"/>
<path d="M26.5965 55.346C26.5965 56.3659 27.4681 57.1928 28.5435 57.1928C29.6189 57.1928 30.4906 56.3659 30.4906 55.346C30.4906 54.3261 29.6189 53.4992 28.5435 53.4992C27.4681 53.4992 26.5965 54.3261 26.5965 55.346ZM26.3801 55.346C26.3801 54.2127 27.3487 53.294 28.5435 53.294C29.7384 53.294 30.7069 54.2127 30.7069 55.346C30.7069 56.4793 29.7384 57.398 28.5435 57.398C27.3487 57.398 26.3801 56.4793 26.3801 55.346Z" fill="black"/>
<path d="M26.3369 65.346C26.3369 66.502 27.3248 67.4391 28.5435 67.4391C29.7623 67.4391 30.7502 66.502 30.7502 65.346C30.7502 64.19 29.7623 63.2529 28.5435 63.2529C27.3248 63.2529 26.3369 64.19 26.3369 65.346ZM26.0917 65.346C26.0917 64.0616 27.1894 63.0204 28.5435 63.0204C29.8977 63.0204 30.9954 64.0616 30.9954 65.346C30.9954 66.6304 29.8977 67.6716 28.5435 67.6716C27.1894 67.6716 26.0917 66.6304 26.0917 65.346Z" fill="black"/>
<path d="M26.0772 75.346C26.0772 76.638 27.1815 77.6853 28.5435 77.6853C29.9056 77.6853 31.0098 76.638 31.0098 75.346C31.0098 74.054 29.9056 73.0067 28.5435 73.0067C27.1815 73.0067 26.0772 74.054 26.0772 75.346ZM25.8032 75.346C25.8032 73.9105 27.0301 72.7468 28.5435 72.7468C30.057 72.7468 31.2838 73.9105 31.2838 75.346C31.2838 76.7815 30.057 77.9452 28.5435 77.9452C27.0301 77.9452 25.8032 76.7815 25.8032 75.346Z" fill="black"/>
<path d="M25.8176 85.346C25.8176 86.7739 27.0381 87.9315 28.5435 87.9315C30.049 87.9315 31.2694 86.7739 31.2694 85.346C31.2694 83.9181 30.049 82.7605 28.5435 82.7605C27.0381 82.7605 25.8176 83.9181 25.8176 85.346ZM25.5148 85.346C25.5148 83.7594 26.8708 82.4732 28.5435 82.4732C30.2163 82.4732 31.5723 83.7594 31.5723 85.346C31.5723 86.9326 30.2163 88.2188 28.5435 88.2188C26.8708 88.2188 25.5148 86.9326 25.5148 85.346Z" fill="black"/>
<path d="M25.5581 95.346C25.5581 96.91 26.8947 98.1777 28.5435 98.1777C30.1923 98.1777 31.529 96.91 31.529 95.346C31.529 93.782 30.1923 92.5143 28.5435 92.5143C26.8947 92.5143 25.5581 93.782 25.5581 95.346ZM25.2263 95.346C25.2263 93.6083 26.7115 92.1996 28.5435 92.1996C30.3756 92.1996 31.8608 93.6083 31.8608 95.346C31.8608 97.0837 30.3756 98.4924 28.5435 98.4924C26.7115 98.4924 25.2263 97.0837 25.2263 95.346Z" fill="black"/>
<path d="M38.5058 5.34599C38.5058 5.65019 38.7658 5.89679 39.0865 5.89679C39.4072 5.89679 39.6672 5.65019 39.6672 5.34599C39.6672 5.04179 39.4072 4.79519 39.0865 4.79519C38.7658 4.79519 38.5058 5.04179 38.5058 5.34599ZM38.4412 5.34599C38.4412 5.00799 38.7301 4.73399 39.0865 4.73399C39.4428 4.73399 39.7317 5.00799 39.7317 5.34599C39.7317 5.68399 39.4428 5.95799 39.0865 5.95799C38.7301 5.95799 38.4412 5.68399 38.4412 5.34599Z" fill="black"/>
<path d="M38.2735 15.346C38.2735 15.7719 38.6374 16.1171 39.0865 16.1171C39.5355 16.1171 39.8994 15.7719 39.8994 15.346C39.8994 14.9201 39.5355 14.5749 39.0865 14.5749C38.6374 14.5749 38.2735 14.9201 38.2735 15.346ZM38.1832 15.346C38.1832 14.8728 38.5876 14.4892 39.0865 14.4892C39.5854 14.4892 39.9898 14.8728 39.9898 15.346C39.9898 15.8192 39.5854 16.2028 39.0865 16.2028C38.5876 16.2028 38.1832 15.8192 38.1832 15.346Z" fill="black"/>
<path d="M38.0412 25.346C38.0412 25.8936 38.5091 26.3375 39.0865 26.3375C39.6638 26.3375 40.1317 25.8936 40.1317 25.346C40.1317 24.7984 39.6638 24.3545 39.0865 24.3545C38.5091 24.3545 38.0412 24.7984 38.0412 25.346ZM37.9251 25.346C37.9251 24.7376 38.445 24.2444 39.0865 24.2444C39.7279 24.2444 40.2479 24.7376 40.2479 25.346C40.2479 25.9544 39.7279 26.4476 39.0865 26.4476C38.445 26.4476 37.9251 25.9544 37.9251 25.346Z" fill="black"/>
<path d="M37.809 35.346C37.809 36.0152 38.3809 36.5578 39.0865 36.5578C39.792 36.5578 40.364 36.0152 40.364 35.346C40.364 34.6768 39.792 34.1342 39.0865 34.1342C38.3809 34.1342 37.809 34.6768 37.809 35.346ZM37.667 35.346C37.667 34.6024 38.3025 33.9996 39.0865 33.9996C39.8704 33.9996 40.506 34.6024 40.506 35.346C40.506 36.0896 39.8704 36.6924 39.0865 36.6924C38.3025 36.6924 37.667 36.0896 37.667 35.346Z" fill="black"/>
<path d="M37.5767 45.346C37.5767 46.1369 38.2526 46.778 39.0865 46.778C39.9203 46.778 40.5962 46.1369 40.5962 45.346C40.5962 44.5551 39.9203 43.914 39.0865 43.914C38.2526 43.914 37.5767 44.5551 37.5767 45.346ZM37.4089 45.346C37.4089 44.4672 38.16 43.7548 39.0865 43.7548C40.013 43.7548 40.7641 44.4672 40.7641 45.346C40.7641 46.2248 40.013 46.9372 39.0865 46.9372C38.16 46.9372 37.4089 46.2248 37.4089 45.346Z" fill="black"/>
<path d="M37.3444 55.346C37.3444 56.2586 38.1243 56.9984 39.0865 56.9984C40.0486 56.9984 40.8286 56.2586 40.8286 55.346C40.8286 54.4334 40.0486 53.6936 39.0865 53.6936C38.1243 53.6936 37.3444 54.4334 37.3444 55.346ZM37.1508 55.346C37.1508 54.332 38.0174 53.51 39.0865 53.51C40.1555 53.51 41.0222 54.332 41.0222 55.346C41.0222 56.36 40.1555 57.182 39.0865 57.182C38.0174 57.182 37.1508 56.36 37.1508 55.346Z" fill="black"/>
<path d="M37.112 65.346C37.112 66.3803 37.996 67.2188 39.0865 67.2188C40.1769 67.2188 41.061 66.3803 41.061 65.346C41.061 64.3117 40.1769 63.4732 39.0865 63.4732C37.996 63.4732 37.112 64.3117 37.112 65.346ZM36.8927 65.346C36.8927 64.1968 37.8749 63.2652 39.0865 63.2652C40.2981 63.2652 41.2802 64.1968 41.2802 65.346C41.2802 66.4952 40.2981 67.4268 39.0865 67.4268C37.8749 67.4268 36.8927 66.4952 36.8927 65.346Z" fill="black"/>
<path d="M36.8797 75.346C36.8797 76.502 37.8677 77.4391 39.0865 77.4391C40.3052 77.4391 41.2932 76.502 41.2932 75.346C41.2932 74.19 40.3052 73.2529 39.0865 73.2529C37.8677 73.2529 36.8797 74.19 36.8797 75.346ZM36.6346 75.346C36.6346 74.0616 37.7323 73.0204 39.0865 73.0204C40.4406 73.0204 41.5383 74.0616 41.5383 75.346C41.5383 76.6304 40.4406 77.6716 39.0865 77.6716C37.7323 77.6716 36.6346 76.6304 36.6346 75.346Z" fill="black"/>
<path d="M36.6475 85.346C36.6475 86.6236 37.7395 87.6594 39.0865 87.6594C40.4334 87.6594 41.5255 86.6236 41.5255 85.346C41.5255 84.0684 40.4334 83.0326 39.0865 83.0326C37.7395 83.0326 36.6475 84.0684 36.6475 85.346ZM36.3765 85.346C36.3765 83.9264 37.5898 82.7756 39.0865 82.7756C40.5831 82.7756 41.7964 83.9264 41.7964 85.346C41.7964 86.7656 40.5831 87.9164 39.0865 87.9164C37.5898 87.9164 36.3765 86.7656 36.3765 85.346Z" fill="black"/>
<path d="M36.4152 95.346C36.4152 96.7453 37.6112 97.8797 39.0865 97.8797C40.5617 97.8797 41.7577 96.7453 41.7577 95.346C41.7577 93.9467 40.5617 92.8123 39.0865 92.8123C37.6112 92.8123 36.4152 93.9467 36.4152 95.346ZM36.1184 95.346C36.1184 93.7912 37.4473 92.5308 39.0865 92.5308C40.7257 92.5308 42.0545 93.7912 42.0545 95.346C42.0545 96.9008 40.7257 98.1612 39.0865 98.1612C37.4473 98.1612 36.1184 96.9008 36.1184 95.346Z" fill="black"/>
<path d="M49.117 5.346C49.117 5.6144 49.3463 5.832 49.6294 5.832C49.9125 5.832 50.1418 5.6144 50.1418 5.346C50.1418 5.0776 49.9125 4.86001 49.6294 4.86001C49.3463 4.86001 49.117 5.0776 49.117 5.346ZM49.0601 5.346C49.0601 5.0478 49.315 4.806 49.6294 4.806C49.9438 4.806 50.1987 5.0478 50.1987 5.346C50.1987 5.6442 49.9438 5.886 49.6294 5.886C49.315 5.886 49.0601 5.6442 49.0601 5.346Z" fill="black"/>
<path d="M48.9121 15.346C48.9121 15.7218 49.2332 16.0264 49.6294 16.0264C50.0256 16.0264 50.3468 15.7218 50.3468 15.346C50.3468 14.9702 50.0256 14.6656 49.6294 14.6656C49.2332 14.6656 48.9121 14.9702 48.9121 15.346ZM48.8324 15.346C48.8324 14.9285 49.1892 14.59 49.6294 14.59C50.0696 14.59 50.4265 14.9285 50.4265 15.346C50.4265 15.7635 50.0696 16.102 49.6294 16.102C49.1892 16.102 48.8324 15.7635 48.8324 15.346Z" fill="black"/>
<path d="M48.7071 25.346C48.7071 25.8292 49.1201 26.2208 49.6294 26.2208C50.1387 26.2208 50.5517 25.8292 50.5517 25.346C50.5517 24.8628 50.1387 24.4712 49.6294 24.4712C49.1201 24.4712 48.7071 24.8628 48.7071 25.346ZM48.6046 25.346C48.6046 24.8092 49.0635 24.374 49.6294 24.374C50.1954 24.374 50.6542 24.8092 50.6542 25.346C50.6542 25.8828 50.1954 26.318 49.6294 26.318C49.0635 26.318 48.6046 25.8828 48.6046 25.346Z" fill="black"/>
<path d="M48.5022 35.346C48.5022 35.9365 49.0069 36.4152 49.6294 36.4152C50.252 36.4152 50.7567 35.9365 50.7567 35.346C50.7567 34.7555 50.252 34.2768 49.6294 34.2768C49.0069 34.2768 48.5022 34.7555 48.5022 35.346ZM48.3769 35.346C48.3769 34.6899 48.9376 34.158 49.6294 34.158C50.3212 34.158 50.8819 34.6899 50.8819 35.346C50.8819 36.0021 50.3212 36.534 49.6294 36.534C48.9376 36.534 48.3769 36.0021 48.3769 35.346Z" fill="black"/>
<path d="M48.2972 45.346C48.2972 46.0439 48.8936 46.6096 49.6294 46.6096C50.3652 46.6096 50.9616 46.0439 50.9616 45.346C50.9616 44.6481 50.3652 44.0824 49.6294 44.0824C48.8936 44.0824 48.2972 44.6481 48.2972 45.346ZM48.1492 45.346C48.1492 44.5706 48.8119 43.942 49.6294 43.942C50.4469 43.942 51.1096 44.5706 51.1096 45.346C51.1096 46.1214 50.4469 46.75 49.6294 46.75C48.8119 46.75 48.1492 46.1214 48.1492 45.346Z" fill="black"/>
<path d="M48.0923 55.346C48.0923 56.1513 48.7804 56.804 49.6294 56.804C50.4784 56.804 51.1666 56.1513 51.1666 55.346C51.1666 54.5407 50.4784 53.888 49.6294 53.888C48.7804 53.888 48.0923 54.5407 48.0923 55.346ZM47.9215 55.346C47.9215 54.4513 48.6861 53.726 49.6294 53.726C50.5727 53.726 51.3374 54.4513 51.3374 55.346C51.3374 56.2407 50.5727 56.966 49.6294 56.966C48.6861 56.966 47.9215 56.2407 47.9215 55.346Z" fill="black"/>
<path d="M47.8873 65.346C47.8873 66.2586 48.6673 66.9984 49.6294 66.9984C50.5916 66.9984 51.3715 66.2586 51.3715 65.346C51.3715 64.4334 50.5916 63.6936 49.6294 63.6936C48.6673 63.6936 47.8873 64.4334 47.8873 65.346ZM47.6937 65.346C47.6937 64.332 48.5604 63.51 49.6294 63.51C50.6985 63.51 51.5651 64.332 51.5651 65.346C51.5651 66.36 50.6985 67.182 49.6294 67.182C48.5604 67.182 47.6937 66.36 47.6937 65.346Z" fill="black"/>
<path d="M47.6823 75.346C47.6823 76.3659 48.5541 77.1928 49.6294 77.1928C50.7047 77.1928 51.5765 76.3659 51.5765 75.346C51.5765 74.3261 50.7047 73.4992 49.6294 73.4992C48.5541 73.4992 47.6823 74.3261 47.6823 75.346ZM47.466 75.346C47.466 74.2127 48.4346 73.294 49.6294 73.294C50.8242 73.294 51.7928 74.2127 51.7928 75.346C51.7928 76.4793 50.8242 77.398 49.6294 77.398C48.4346 77.398 47.466 76.4793 47.466 75.346Z" fill="black"/>
<path d="M47.4774 85.346C47.4774 86.4733 48.4409 87.3872 49.6294 87.3872C50.8179 87.3872 51.7814 86.4733 51.7814 85.346C51.7814 84.2187 50.8179 83.3048 49.6294 83.3048C48.4409 83.3048 47.4774 84.2187 47.4774 85.346ZM47.2383 85.346C47.2383 84.0935 48.3089 83.078 49.6294 83.078C50.9499 83.078 52.0205 84.0935 52.0205 85.346C52.0205 86.5985 50.9499 87.614 49.6294 87.614C48.3089 87.614 47.2383 86.5985 47.2383 85.346Z" fill="black"/>
<path d="M47.2724 95.346C47.2724 96.5807 48.3277 97.5816 49.6294 97.5816C50.9311 97.5816 51.9864 96.5807 51.9864 95.346C51.9864 94.1113 50.9311 93.1104 49.6294 93.1104C48.3277 93.1104 47.2724 94.1113 47.2724 95.346ZM47.0105 95.346C47.0105 93.9741 48.183 92.862 49.6294 92.862C51.0758 92.862 52.2483 93.9741 52.2483 95.346C52.2483 96.7179 51.0758 97.83 49.6294 97.83C48.183 97.83 47.0105 96.7179 47.0105 95.346Z" fill="black"/>
<path d="M59.7283 5.346C59.7283 5.5786 59.9271 5.7672 60.1724 5.7672C60.4176 5.7672 60.6164 5.5786 60.6164 5.346C60.6164 5.1134 60.4176 4.9248 60.1724 4.9248C59.9271 4.9248 59.7283 5.1134 59.7283 5.346ZM59.6789 5.346C59.6789 5.0875 59.8998 4.878 60.1724 4.878C60.4449 4.878 60.6658 5.0875 60.6658 5.346C60.6658 5.6045 60.4449 5.814 60.1724 5.814C59.8998 5.814 59.6789 5.6045 59.6789 5.346Z" fill="black"/>
<path d="M59.5507 15.346C59.5507 15.6717 59.829 15.9357 60.1723 15.9357C60.5157 15.9357 60.794 15.6717 60.794 15.346C60.794 15.0203 60.5157 14.7563 60.1723 14.7563C59.829 14.7563 59.5507 15.0203 59.5507 15.346ZM59.4816 15.346C59.4816 14.9841 59.7909 14.6908 60.1723 14.6908C60.5538 14.6908 60.8631 14.9841 60.8631 15.346C60.8631 15.7079 60.5538 16.0012 60.1723 16.0012C59.7909 16.0012 59.4816 15.7079 59.4816 15.346Z" fill="black"/>
<path d="M59.373 25.346C59.373 25.7647 59.7309 26.1042 60.1724 26.1042C60.6139 26.1042 60.9717 25.7647 60.9717 25.346C60.9717 24.9273 60.6139 24.5878 60.1724 24.5878C59.7309 24.5878 59.373 24.9273 59.373 25.346ZM59.2842 25.346C59.2842 24.8808 59.6819 24.5036 60.1724 24.5036C60.6628 24.5036 61.0605 24.8808 61.0605 25.346C61.0605 25.8112 60.6628 26.1884 60.1724 26.1884C59.6819 26.1884 59.2842 25.8112 59.2842 25.346Z" fill="black"/>
<path d="M59.1953 35.346C59.1953 35.8578 59.6329 36.2727 60.1724 36.2727C60.7118 36.2727 61.1494 35.8578 61.1494 35.346C61.1494 34.8342 60.7118 34.4193 60.1724 34.4193C59.6329 34.4193 59.1953 34.8342 59.1953 35.346ZM59.0868 35.346C59.0868 34.7773 59.5728 34.3164 60.1724 34.3164C60.7719 34.3164 61.2579 34.7773 61.2579 35.346C61.2579 35.9147 60.7719 36.3756 60.1724 36.3756C59.5728 36.3756 59.0868 35.9147 59.0868 35.346Z" fill="black"/>
<path d="M59.0178 45.346C59.0178 45.9508 59.5347 46.4411 60.1723 46.4411C60.81 46.4411 61.3269 45.9508 61.3269 45.346C61.3269 44.7412 60.81 44.2509 60.1723 44.2509C59.5347 44.2509 59.0178 44.7412 59.0178 45.346ZM58.8895 45.346C58.8895 44.6739 59.4638 44.1292 60.1723 44.1292C60.8809 44.1292 61.4552 44.6739 61.4552 45.346C61.4552 46.0181 60.8809 46.5628 60.1723 46.5628C59.4638 46.5628 58.8895 46.0181 58.8895 45.346Z" fill="black"/>
<path d="M58.8401 55.346C58.8401 56.0439 59.4366 56.6096 60.1724 56.6096C60.9081 56.6096 61.5046 56.0439 61.5046 55.346C61.5046 54.6481 60.9081 54.0824 60.1724 54.0824C59.4366 54.0824 58.8401 54.6481 58.8401 55.346ZM58.6921 55.346C58.6921 54.5706 59.3549 53.942 60.1724 53.942C60.9899 53.942 61.6526 54.5706 61.6526 55.346C61.6526 56.1214 60.9899 56.75 60.1724 56.75C59.3549 56.75 58.6921 56.1214 58.6921 55.346Z" fill="black"/>
<path d="M58.6626 65.346C58.6626 66.1369 59.3385 66.778 60.1724 66.778C61.0062 66.778 61.6821 66.1369 61.6821 65.346C61.6821 64.5551 61.0062 63.914 60.1724 63.914C59.3385 63.914 58.6626 64.5551 58.6626 65.346ZM58.4948 65.346C58.4948 64.4672 59.2458 63.7548 60.1724 63.7548C61.0989 63.7548 61.8499 64.4672 61.8499 65.346C61.8499 66.2248 61.0989 66.9372 60.1724 66.9372C59.2458 66.9372 58.4948 66.2248 58.4948 65.346Z" fill="black"/>
<path d="M58.4848 75.346C58.4848 76.23 59.2404 76.9466 60.1724 76.9466C61.1043 76.9466 61.8599 76.23 61.8599 75.346C61.8599 74.462 61.1043 73.7454 60.1724 73.7454C59.2404 73.7454 58.4848 74.462 58.4848 75.346ZM58.2974 75.346C58.2974 74.3638 59.1368 73.5676 60.1724 73.5676C61.2079 73.5676 62.0473 74.3638 62.0473 75.346C62.0473 76.3282 61.2079 77.1244 60.1724 77.1244C59.1368 77.1244 58.2974 76.3282 58.2974 75.346Z" fill="black"/>
<path d="M58.3073 85.346C58.3073 86.3231 59.1422 87.115 60.1724 87.115C61.2025 87.115 62.0374 86.3231 62.0374 85.346C62.0374 84.3689 61.2025 83.577 60.1724 83.577C59.1422 83.577 58.3073 84.3689 58.3073 85.346ZM58.1 85.346C58.1 84.2605 59.0279 83.3804 60.1724 83.3804C61.3168 83.3804 62.2447 84.2605 62.2447 85.346C62.2447 86.4315 61.3168 87.3116 60.1724 87.3116C59.0279 87.3116 58.1 86.4315 58.1 85.346Z" fill="black"/>
<path d="M58.1297 95.346C58.1297 96.416 59.0443 97.2835 60.1724 97.2835C61.3005 97.2835 62.2151 96.416 62.2151 95.346C62.2151 94.276 61.3005 93.4085 60.1724 93.4085C59.0443 93.4085 58.1297 94.276 58.1297 95.346ZM57.9027 95.346C57.9027 94.157 58.9188 93.1932 60.1724 93.1932C61.4259 93.1932 62.442 94.157 62.442 95.346C62.442 96.535 61.4259 97.4988 60.1724 97.4988C58.9188 97.4988 57.9027 96.535 57.9027 95.346Z" fill="black"/>
<path d="M70.3395 5.346C70.3395 5.5428 70.5077 5.7024 70.7153 5.7024C70.9229 5.7024 71.091 5.5428 71.091 5.346C71.091 5.1492 70.9229 4.98961 70.7153 4.98961C70.5077 4.98961 70.3395 5.1492 70.3395 5.346ZM70.2978 5.346C70.2978 5.1273 70.4847 4.95001 70.7153 4.95001C70.946 4.95001 71.1328 5.1273 71.1328 5.346C71.1328 5.5647 70.946 5.742 70.7153 5.742C70.4847 5.742 70.2978 5.5647 70.2978 5.346Z" fill="black"/>
<path d="M70.1893 15.346C70.1893 15.6216 70.4247 15.845 70.7153 15.845C71.0059 15.845 71.2413 15.6216 71.2413 15.346C71.2413 15.0704 71.0059 14.847 70.7153 14.847C70.4247 14.847 70.1893 15.0704 70.1893 15.346ZM70.1308 15.346C70.1308 15.0398 70.3925 14.7916 70.7153 14.7916C71.0381 14.7916 71.2998 15.0398 71.2998 15.346C71.2998 15.6522 71.0381 15.9004 70.7153 15.9004C70.3925 15.9004 70.1308 15.6522 70.1308 15.346Z" fill="black"/>
<path d="M70.039 25.346C70.039 25.7003 70.3418 25.9875 70.7153 25.9875C71.0888 25.9875 71.3916 25.7003 71.3916 25.346C71.3916 24.9917 71.0888 24.7045 70.7153 24.7045C70.3418 24.7045 70.039 24.9917 70.039 25.346ZM69.9638 25.346C69.9638 24.9523 70.3002 24.6332 70.7153 24.6332C71.1304 24.6332 71.4668 24.9523 71.4668 25.346C71.4668 25.7397 71.1304 26.0588 70.7153 26.0588C70.3002 26.0588 69.9638 25.7397 69.9638 25.346Z" fill="black"/>
<path d="M69.8886 35.346C69.8886 35.7791 70.2588 36.1301 70.7153 36.1301C71.1718 36.1301 71.542 35.7791 71.542 35.346C71.542 34.9129 71.1718 34.5619 70.7153 34.5619C70.2588 34.5619 69.8886 34.9129 69.8886 35.346ZM69.7968 35.346C69.7968 34.8648 70.208 34.4748 70.7153 34.4748C71.2226 34.4748 71.6338 34.8648 71.6338 35.346C71.6338 35.8272 71.2226 36.2172 70.7153 36.2172C70.208 36.2172 69.7968 35.8272 69.7968 35.346Z" fill="black"/>
<path d="M69.7383 45.346C69.7383 45.8578 70.1758 46.2727 70.7153 46.2727C71.2548 46.2727 71.6923 45.8578 71.6923 45.346C71.6923 44.8342 71.2548 44.4193 70.7153 44.4193C70.1758 44.4193 69.7383 44.8342 69.7383 45.346ZM69.6298 45.346C69.6298 44.7773 70.1157 44.3164 70.7153 44.3164C71.3149 44.3164 71.8008 44.7773 71.8008 45.346C71.8008 45.9147 71.3149 46.3756 70.7153 46.3756C70.1157 46.3756 69.6298 45.9147 69.6298 45.346Z" fill="black"/>
<path d="M69.5881 55.346C69.5881 55.9365 70.0927 56.4152 70.7153 56.4152C71.3379 56.4152 71.8426 55.9365 71.8426 55.346C71.8426 54.7555 71.3379 54.2768 70.7153 54.2768C70.0927 54.2768 69.5881 54.7555 69.5881 55.346ZM69.4628 55.346C69.4628 54.6898 70.0235 54.158 70.7153 54.158C71.4071 54.158 71.9678 54.6898 71.9678 55.346C71.9678 56.0022 71.4071 56.534 70.7153 56.534C70.0235 56.534 69.4628 56.0022 69.4628 55.346Z" fill="black"/>
<path d="M69.4378 65.346C69.4378 66.0152 70.0098 66.5577 70.7153 66.5577C71.4208 66.5577 71.9928 66.0152 71.9928 65.346C71.9928 64.6768 71.4208 64.1343 70.7153 64.1343C70.0098 64.1343 69.4378 64.6768 69.4378 65.346ZM69.2958 65.346C69.2958 64.6024 69.9313 63.9996 70.7153 63.9996C71.4993 63.9996 72.1348 64.6024 72.1348 65.346C72.1348 66.0896 71.4993 66.6924 70.7153 66.6924C69.9313 66.6924 69.2958 66.0896 69.2958 65.346Z" fill="black"/>
<path d="M69.2875 75.346C69.2875 76.0939 69.9268 76.7003 70.7153 76.7003C71.5038 76.7003 72.1431 76.0939 72.1431 75.346C72.1431 74.5981 71.5038 73.9917 70.7153 73.9917C69.9268 73.9917 69.2875 74.5981 69.2875 75.346ZM69.1288 75.346C69.1288 74.5149 69.8391 73.8412 70.7153 73.8412C71.5915 73.8412 72.3018 74.5149 72.3018 75.346C72.3018 76.1771 71.5915 76.8508 70.7153 76.8508C69.8391 76.8508 69.1288 76.1771 69.1288 75.346Z" fill="black"/>
<path d="M69.1371 85.346C69.1371 86.1727 69.8437 86.8429 70.7153 86.8429C71.5869 86.8429 72.2935 86.1727 72.2935 85.346C72.2935 84.5193 71.5869 83.8491 70.7153 83.8491C69.8437 83.8491 69.1371 84.5193 69.1371 85.346ZM68.9618 85.346C68.9618 84.4274 69.7468 83.6828 70.7153 83.6828C71.6838 83.6828 72.4688 84.4274 72.4688 85.346C72.4688 86.2646 71.6838 87.0092 70.7153 87.0092C69.7468 87.0092 68.9618 86.2646 68.9618 85.346Z" fill="black"/>
<path d="M68.9868 95.346C68.9868 96.2515 69.7606 96.9855 70.7153 96.9855C71.67 96.9855 72.4438 96.2515 72.4438 95.346C72.4438 94.4405 71.67 93.7065 70.7153 93.7065C69.7606 93.7065 68.9868 94.4405 68.9868 95.346ZM68.7948 95.346C68.7948 94.3399 69.6546 93.5244 70.7153 93.5244C71.776 93.5244 72.6358 94.3399 72.6358 95.346C72.6358 96.3521 71.776 97.1676 70.7153 97.1676C69.6546 97.1676 68.7948 96.3521 68.7948 95.346Z" fill="black"/>
<path d="M80.9508 5.346C80.9508 5.507 81.0885 5.6376 81.2582 5.6376C81.428 5.6376 81.5657 5.507 81.5657 5.346C81.5657 5.1849 81.428 5.0544 81.2582 5.0544C81.0885 5.0544 80.9508 5.1849 80.9508 5.346ZM80.9166 5.346C80.9166 5.167 81.0696 5.02199 81.2582 5.02199C81.4469 5.02199 81.5998 5.167 81.5998 5.346C81.5998 5.5249 81.4469 5.67 81.2582 5.67C81.0696 5.67 80.9166 5.5249 80.9166 5.346Z" fill="black"/>
<path d="M80.8279 15.346C80.8279 15.5715 81.0205 15.7543 81.2582 15.7543C81.496 15.7543 81.6886 15.5715 81.6886 15.346C81.6886 15.1205 81.496 14.9377 81.2582 14.9377C81.0205 14.9377 80.8279 15.1205 80.8279 15.346ZM80.78 15.346C80.78 15.0955 80.9941 14.8924 81.2582 14.8924C81.5223 14.8924 81.7365 15.0955 81.7365 15.346C81.7365 15.5965 81.5223 15.7996 81.2582 15.7996C80.9941 15.7996 80.78 15.5965 80.78 15.346Z" fill="black"/>
<path d="M80.7048 25.346C80.7048 25.6359 80.9527 25.8709 81.2582 25.8709C81.5638 25.8709 81.8116 25.6359 81.8116 25.346C81.8116 25.0561 81.5638 24.8211 81.2582 24.8211C80.9527 24.8211 80.7048 25.0561 80.7048 25.346ZM80.6434 25.346C80.6434 25.0239 80.9186 24.7628 81.2582 24.7628C81.5978 24.7628 81.8731 25.0239 81.8731 25.346C81.8731 25.6681 81.5978 25.9292 81.2582 25.9292C80.9186 25.9292 80.6434 25.6681 80.6434 25.346Z" fill="black"/>
<path d="M80.5819 35.346C80.5819 35.7003 80.8847 35.9875 81.2582 35.9875C81.6318 35.9875 81.9346 35.7003 81.9346 35.346C81.9346 34.9917 81.6318 34.7045 81.2582 34.7045C80.8847 34.7045 80.5819 34.9917 80.5819 35.346ZM80.5067 35.346C80.5067 34.9523 80.8432 34.6332 81.2582 34.6332C81.6733 34.6332 82.0097 34.9523 82.0097 35.346C82.0097 35.7397 81.6733 36.0588 81.2582 36.0588C80.8432 36.0588 80.5067 35.7397 80.5067 35.346Z" fill="black"/>
<path d="M80.4589 45.346C80.4589 45.7648 80.8168 46.1042 81.2582 46.1042C81.6998 46.1042 82.0576 45.7648 82.0576 45.346C82.0576 44.9273 81.6998 44.5878 81.2582 44.5878C80.8168 44.5878 80.4589 44.9273 80.4589 45.346ZM80.3701 45.346C80.3701 44.8808 80.7678 44.5036 81.2582 44.5036C81.7487 44.5036 82.1464 44.8808 82.1464 45.346C82.1464 45.8112 81.7487 46.1884 81.2582 46.1884C80.7678 46.1884 80.3701 45.8112 80.3701 45.346Z" fill="black"/>
<path d="M80.3359 55.346C80.3359 55.8291 80.7489 56.2208 81.2582 56.2208C81.7676 56.2208 82.1805 55.8291 82.1805 55.346C82.1805 54.8629 81.7676 54.4712 81.2582 54.4712C80.7489 54.4712 80.3359 54.8629 80.3359 55.346ZM80.2335 55.346C80.2335 54.8092 80.6923 54.374 81.2582 54.374C81.8242 54.374 82.283 54.8092 82.283 55.346C82.283 55.8828 81.8242 56.318 81.2582 56.318C80.6923 56.318 80.2335 55.8828 80.2335 55.346Z" fill="black"/>
<path d="M80.213 65.346C80.213 65.8936 80.6809 66.3374 81.2582 66.3374C81.8356 66.3374 82.3035 65.8936 82.3035 65.346C82.3035 64.7984 81.8356 64.3546 81.2582 64.3546C80.6809 64.3546 80.213 64.7984 80.213 65.346ZM80.0968 65.346C80.0968 64.7376 80.6168 64.2444 81.2582 64.2444C81.8997 64.2444 82.4197 64.7376 82.4197 65.346C82.4197 65.9544 81.8997 66.4476 81.2582 66.4476C80.6168 66.4476 80.0968 65.9544 80.0968 65.346Z" fill="black"/>
<path d="M80.09 75.346C80.09 75.958 80.613 76.4541 81.2582 76.4541C81.9035 76.4541 82.4265 75.958 82.4265 75.346C82.4265 74.734 81.9035 74.2379 81.2582 74.2379C80.613 74.2379 80.09 74.734 80.09 75.346ZM79.9602 75.346C79.9602 74.666 80.5413 74.1148 81.2582 74.1148C81.9752 74.1148 82.5564 74.666 82.5564 75.346C82.5564 76.026 81.9752 76.5772 81.2582 76.5772C80.5413 76.5772 79.9602 76.026 79.9602 75.346Z" fill="black"/>
<path d="M79.967 85.346C79.967 86.0224 80.5451 86.5707 81.2582 86.5707C81.9714 86.5707 82.5494 86.0224 82.5494 85.346C82.5494 84.6696 81.9714 84.1213 81.2582 84.1213C80.5451 84.1213 79.967 84.6696 79.967 85.346ZM79.8236 85.346C79.8236 84.5944 80.4658 83.9852 81.2582 83.9852C82.0506 83.9852 82.6929 84.5944 82.6929 85.346C82.6929 86.0976 82.0506 86.7068 81.2582 86.7068C80.4658 86.7068 79.8236 86.0976 79.8236 85.346Z" fill="black"/>
<path d="M79.844 95.346C79.844 96.0868 80.4772 96.6874 81.2582 96.6874C82.0393 96.6874 82.6725 96.0868 82.6725 95.346C82.6725 94.6052 82.0393 94.0046 81.2582 94.0046C80.4772 94.0046 79.844 94.6052 79.844 95.346ZM79.6869 95.346C79.6869 94.5229 80.3904 93.8556 81.2582 93.8556C82.126 93.8556 82.8296 94.5229 82.8296 95.346C82.8296 96.1691 82.126 96.8364 81.2582 96.8364C80.3904 96.8364 79.6869 96.1691 79.6869 95.346Z" fill="black"/>
<path d="M91.5621 5.346C91.5621 5.4712 91.6691 5.5728 91.8012 5.5728C91.9333 5.5728 92.0403 5.4712 92.0403 5.346C92.0403 5.2208 91.9333 5.1192 91.8012 5.1192C91.6691 5.1192 91.5621 5.2208 91.5621 5.346ZM91.5355 5.346C91.5355 5.2068 91.6544 5.094 91.8012 5.094C91.9479 5.094 92.0669 5.2068 92.0669 5.346C92.0669 5.4851 91.9479 5.598 91.8012 5.598C91.6544 5.598 91.5355 5.4851 91.5355 5.346Z" fill="black"/>
<path d="M91.4664 15.346C91.4664 15.5213 91.6162 15.6635 91.8012 15.6635C91.9861 15.6635 92.1359 15.5213 92.1359 15.346C92.1359 15.1707 91.9861 15.0285 91.8012 15.0285C91.6162 15.0285 91.4664 15.1707 91.4664 15.346ZM91.4292 15.346C91.4292 15.1512 91.5958 14.9932 91.8012 14.9932C92.0065 14.9932 92.1731 15.1512 92.1731 15.346C92.1731 15.5408 92.0065 15.6988 91.8012 15.6988C91.5958 15.6988 91.4292 15.5408 91.4292 15.346Z" fill="black"/>
<path d="M91.3708 25.346C91.3708 25.5715 91.5634 25.7543 91.8012 25.7543C92.0389 25.7543 92.2315 25.5715 92.2315 25.346C92.2315 25.1205 92.0389 24.9377 91.8012 24.9377C91.5634 24.9377 91.3708 25.1205 91.3708 25.346ZM91.3229 25.346C91.3229 25.0955 91.5371 24.8924 91.8012 24.8924C92.0653 24.8924 92.2794 25.0955 92.2794 25.346C92.2794 25.5965 92.0653 25.7996 91.8012 25.7996C91.5371 25.7996 91.3229 25.5965 91.3229 25.346Z" fill="black"/>
<path d="M91.2752 35.346C91.2752 35.6216 91.5106 35.845 91.8012 35.845C92.0917 35.845 92.3272 35.6216 92.3272 35.346C92.3272 35.0704 92.0917 34.847 91.8012 34.847C91.5106 34.847 91.2752 35.0704 91.2752 35.346ZM91.2167 35.346C91.2167 35.0398 91.4783 34.7916 91.8012 34.7916C92.124 34.7916 92.3857 35.0398 92.3857 35.346C92.3857 35.6522 92.124 35.9004 91.8012 35.9004C91.4783 35.9004 91.2167 35.6522 91.2167 35.346Z" fill="black"/>
<path d="M91.1796 45.346C91.1796 45.6717 91.4578 45.9356 91.8012 45.9356C92.1446 45.9356 92.4228 45.6717 92.4228 45.346C92.4228 45.0203 92.1446 44.7564 91.8012 44.7564C91.4578 44.7564 91.1796 45.0203 91.1796 45.346ZM91.1104 45.346C91.1104 44.9842 91.4197 44.6908 91.8012 44.6908C92.1826 44.6908 92.4919 44.9842 92.4919 45.346C92.4919 45.7078 92.1826 46.0012 91.8012 46.0012C91.4197 46.0012 91.1104 45.7078 91.1104 45.346Z" fill="black"/>
<path d="M91.0838 55.346C91.0838 55.7218 91.405 56.0264 91.8012 56.0264C92.1974 56.0264 92.5185 55.7218 92.5185 55.346C92.5185 54.9702 92.1974 54.6656 91.8012 54.6656C91.405 54.6656 91.0838 54.9702 91.0838 55.346ZM91.0041 55.346C91.0041 54.9285 91.3609 54.59 91.8012 54.59C92.2414 54.59 92.5982 54.9285 92.5982 55.346C92.5982 55.7635 92.2414 56.102 91.8012 56.102C91.3609 56.102 91.0041 55.7635 91.0041 55.346Z" fill="black"/>
<path d="M90.9882 65.346C90.9882 65.7719 91.3521 66.1171 91.8012 66.1171C92.2502 66.1171 92.6141 65.7719 92.6141 65.346C92.6141 64.9201 92.2502 64.5749 91.8012 64.5749C91.3521 64.5749 90.9882 64.9201 90.9882 65.346ZM90.8979 65.346C90.8979 64.8728 91.3023 64.4892 91.8012 64.4892C92.3001 64.4892 92.7045 64.8728 92.7045 65.346C92.7045 65.8192 92.3001 66.2028 91.8012 66.2028C91.3023 66.2028 90.8979 65.8192 90.8979 65.346Z" fill="black"/>
<path d="M90.8926 75.346C90.8926 75.822 91.2993 76.2078 91.8012 76.2078C92.303 76.2078 92.7098 75.822 92.7098 75.346C92.7098 74.87 92.303 74.4842 91.8012 74.4842C91.2993 74.4842 90.8926 74.87 90.8926 75.346ZM90.7916 75.346C90.7916 74.8171 91.2436 74.3884 91.8012 74.3884C92.3588 74.3884 92.8108 74.8171 92.8108 75.346C92.8108 75.8749 92.3588 76.3036 91.8012 76.3036C91.2436 76.3036 90.7916 75.8749 90.7916 75.346Z" fill="black"/>
<path d="M90.797 85.346C90.797 85.8721 91.2465 86.2985 91.8012 86.2985C92.3558 86.2985 92.8054 85.8721 92.8054 85.346C92.8054 84.8199 92.3558 84.3935 91.8012 84.3935C91.2465 84.3935 90.797 84.8199 90.797 85.346ZM90.6853 85.346C90.6853 84.7614 91.1848 84.2876 91.8012 84.2876C92.4175 84.2876 92.917 84.7614 92.917 85.346C92.917 85.9306 92.4175 86.4044 91.8012 86.4044C91.1848 86.4044 90.6853 85.9306 90.6853 85.346Z" fill="black"/>
<path d="M90.7012 95.346C90.7012 95.9222 91.1937 96.3893 91.8012 96.3893C92.4087 96.3893 92.9011 95.9222 92.9011 95.346C92.9011 94.7698 92.4087 94.3027 91.8012 94.3027C91.1937 94.3027 90.7012 94.7698 90.7012 95.346ZM90.579 95.346C90.579 94.7058 91.1262 94.1868 91.8012 94.1868C92.4761 94.1868 93.0233 94.7058 93.0233 95.346C93.0233 95.9862 92.4761 96.5052 91.8012 96.5052C91.1262 96.5052 90.579 95.9862 90.579 95.346Z" fill="black"/>
<path d="M102.173 5.346C102.173 5.4355 102.25 5.508 102.344 5.508C102.438 5.508 102.515 5.4355 102.515 5.346C102.515 5.2565 102.438 5.18399 102.344 5.18399C102.25 5.18399 102.173 5.2565 102.173 5.346ZM102.154 5.346C102.154 5.2466 102.239 5.166 102.344 5.166C102.449 5.166 102.534 5.2466 102.534 5.346C102.534 5.4454 102.449 5.526 102.344 5.526C102.239 5.526 102.154 5.4454 102.154 5.346Z" fill="black"/>
<path d="M102.105 15.346C102.105 15.4712 102.212 15.5728 102.344 15.5728C102.476 15.5728 102.583 15.4712 102.583 15.346C102.583 15.2208 102.476 15.1192 102.344 15.1192C102.212 15.1192 102.105 15.2208 102.105 15.346ZM102.078 15.346C102.078 15.2068 102.197 15.094 102.344 15.094C102.491 15.094 102.61 15.2068 102.61 15.346C102.61 15.4852 102.491 15.598 102.344 15.598C102.197 15.598 102.078 15.4852 102.078 15.346Z" fill="black"/>
<path d="M102.037 25.346C102.037 25.507 102.174 25.6376 102.344 25.6376C102.514 25.6376 102.652 25.507 102.652 25.346C102.652 25.185 102.514 25.0544 102.344 25.0544C102.174 25.0544 102.037 25.185 102.037 25.346ZM102.003 25.346C102.003 25.167 102.156 25.022 102.344 25.022C102.533 25.022 102.686 25.167 102.686 25.346C102.686 25.525 102.533 25.67 102.344 25.67C102.156 25.67 102.003 25.525 102.003 25.346Z" fill="black"/>
<path d="M101.968 35.346C101.968 35.5428 102.137 35.7024 102.344 35.7024C102.552 35.7024 102.72 35.5428 102.72 35.346C102.72 35.1492 102.552 34.9896 102.344 34.9896C102.137 34.9896 101.968 35.1492 101.968 35.346ZM101.927 35.346C101.927 35.1273 102.114 34.95 102.344 34.95C102.575 34.95 102.762 35.1273 102.762 35.346C102.762 35.5647 102.575 35.742 102.344 35.742C102.114 35.742 101.927 35.5647 101.927 35.346Z" fill="black"/>
<path d="M101.9 45.346C101.9 45.5786 102.099 45.7672 102.344 45.7672C102.589 45.7672 102.788 45.5786 102.788 45.346C102.788 45.1134 102.589 44.9248 102.344 44.9248C102.099 44.9248 101.9 45.1134 101.9 45.346ZM101.851 45.346C101.851 45.0875 102.072 44.878 102.344 44.878C102.617 44.878 102.838 45.0875 102.838 45.346C102.838 45.6045 102.617 45.814 102.344 45.814C102.072 45.814 101.851 45.6045 101.851 45.346Z" fill="black"/>
<path d="M101.832 55.346C101.832 55.6145 102.061 55.832 102.344 55.832C102.627 55.832 102.856 55.6145 102.856 55.346C102.856 55.0775 102.627 54.86 102.344 54.86C102.061 54.86 101.832 55.0775 101.832 55.346ZM101.775 55.346C101.775 55.0478 102.03 54.806 102.344 54.806C102.658 54.806 102.913 55.0478 102.913 55.346C102.913 55.6442 102.658 55.886 102.344 55.886C102.03 55.886 101.775 55.6442 101.775 55.346Z" fill="black"/>
<path d="M101.763 65.346C101.763 65.6502 102.023 65.8968 102.344 65.8968C102.665 65.8968 102.925 65.6502 102.925 65.346C102.925 65.0418 102.665 64.7952 102.344 64.7952C102.023 64.7952 101.763 65.0418 101.763 65.346ZM101.699 65.346C101.699 65.008 101.988 64.734 102.344 64.734C102.7 64.734 102.989 65.008 102.989 65.346C102.989 65.684 102.7 65.958 102.344 65.958C101.988 65.958 101.699 65.684 101.699 65.346Z" fill="black"/>
<path d="M101.695 75.346C101.695 75.6859 101.986 75.9616 102.344 75.9616C102.702 75.9616 102.993 75.6859 102.993 75.346C102.993 75.0061 102.702 74.7304 102.344 74.7304C101.986 74.7304 101.695 75.0061 101.695 75.346ZM101.623 75.346C101.623 74.9683 101.946 74.662 102.344 74.662C102.742 74.662 103.065 74.9683 103.065 75.346C103.065 75.7237 102.742 76.03 102.344 76.03C101.946 76.03 101.623 75.7237 101.623 75.346Z" fill="black"/>
<path d="M101.627 85.346C101.627 85.7218 101.948 86.0264 102.344 86.0264C102.74 86.0264 103.061 85.7218 103.061 85.346C103.061 84.9702 102.74 84.6656 102.344 84.6656C101.948 84.6656 101.627 84.9702 101.627 85.346ZM101.547 85.346C101.547 84.9285 101.904 84.59 102.344 84.59C102.784 84.59 103.141 84.9285 103.141 85.346C103.141 85.7635 102.784 86.102 102.344 86.102C101.904 86.102 101.547 85.7635 101.547 85.346Z" fill="black"/>
<path d="M101.558 95.346C101.558 95.7575 101.91 96.0912 102.344 96.0912C102.778 96.0912 103.13 95.7575 103.13 95.346C103.13 94.9345 102.778 94.6008 102.344 94.6008C101.91 94.6008 101.558 94.9345 101.558 95.346ZM101.471 95.346C101.471 94.8887 101.862 94.518 102.344 94.518C102.826 94.518 103.217 94.8887 103.217 95.346C103.217 95.8033 102.826 96.174 102.344 96.174C101.862 96.174 101.471 95.8033 101.471 95.346Z" fill="black"/>
<path d="M1.82182 0.345996C1.82182 0.154996 1.98495 0 2.18617 0C2.3874 0 2.55052 0.154996 2.55052 0.345996C2.55052 0.536896 2.3874 0.691592 2.18617 0.691592C1.98495 0.691592 1.82182 0.536896 1.82182 0.345996Z" fill="black"/>
<path d="M1.63963 10.346C1.63963 10.0597 1.8843 9.82759 2.18617 9.82759C2.48805 9.82759 2.73272 10.0597 2.73272 10.346C2.73272 10.6323 2.48805 10.8644 2.18617 10.8644C1.8843 10.8644 1.63963 10.6323 1.63963 10.346Z" fill="black"/>
<path d="M1.45743 20.346C1.45743 19.9643 1.78373 19.6548 2.18617 19.6548C2.58862 19.6548 2.91491 19.9643 2.91491 20.346C2.91491 20.7277 2.58862 21.0372 2.18617 21.0372C1.78373 21.0372 1.45743 20.7277 1.45743 20.346Z" fill="black"/>
<path d="M1.27524 30.346C1.27524 29.8689 1.68308 29.482 2.18617 29.482C2.68927 29.482 3.09711 29.8689 3.09711 30.346C3.09711 30.8231 2.68927 31.21 2.18617 31.21C1.68308 31.21 1.27524 30.8231 1.27524 30.346Z" fill="black"/>
<path d="M1.09304 40.346C1.09304 39.7734 1.58247 39.3092 2.18617 39.3092C2.78988 39.3092 3.27931 39.7734 3.27931 40.346C3.27931 40.9187 2.78988 41.3828 2.18617 41.3828C1.58247 41.3828 1.09304 40.9187 1.09304 40.346Z" fill="black"/>
<path d="M0.910889 50.346C0.910889 49.6779 1.48186 49.1364 2.18617 49.1364C2.89049 49.1364 3.46146 49.6779 3.46146 50.346C3.46146 51.0141 2.89049 51.5556 2.18617 51.5556C1.48186 51.5556 0.910889 51.0141 0.910889 50.346Z" fill="black"/>
<path d="M0.728697 60.346C0.728697 59.5825 1.38124 58.9636 2.18617 58.9636C2.9911 58.9636 3.64365 59.5825 3.64365 60.346C3.64365 61.1095 2.9911 61.7284 2.18617 61.7284C1.38124 61.7284 0.728697 61.1095 0.728697 60.346Z" fill="black"/>
<path d="M0.546536 70.346C0.546536 69.4871 1.28059 68.7908 2.18617 68.7908C3.09175 68.7908 3.82581 69.4871 3.82581 70.346C3.82581 71.2049 3.09175 71.9012 2.18617 71.9012C1.28059 71.9012 0.546536 71.2049 0.546536 70.346Z" fill="black"/>
<path d="M0.364385 80.346C0.364385 79.3916 1.18002 78.618 2.18617 78.618C3.19232 78.618 4.00796 79.3916 4.00796 80.346C4.00796 81.3004 3.19232 82.074 2.18617 82.074C1.18002 82.074 0.364385 81.3004 0.364385 80.346Z" fill="black"/>
<path d="M0.182192 90.346C0.182192 89.2962 1.07938 88.4452 2.18617 88.4452C3.29297 88.4452 4.19016 89.2962 4.19016 90.346C4.19016 91.3958 3.29297 92.2468 2.18617 92.2468C1.07938 92.2468 0.182192 91.3958 0.182192 90.346Z" fill="black"/>
<path d="M0 100.346C0 99.2008 0.978796 98.2724 2.18617 98.2724C3.39355 98.2724 4.37235 99.2008 4.37235 100.346C4.37235 101.491 3.39355 102.42 2.18617 102.42C0.978796 102.42 0 101.491 0 100.346Z" fill="black"/>
<path d="M12.3951 0.346002C12.3951 0.171002 12.5447 0.0289996 12.7291 0.0289996C12.9136 0.0289996 13.0631 0.171002 13.0631 0.346002C13.0631 0.521002 12.9136 0.662798 12.7291 0.662798C12.5447 0.662798 12.3951 0.521002 12.3951 0.346002Z" fill="black"/>
<path d="M12.2281 10.346C12.2281 10.0835 12.4524 9.8708 12.7291 9.8708C13.0059 9.8708 13.2301 10.0835 13.2301 10.346C13.2301 10.6085 13.0059 10.8212 12.7291 10.8212C12.4524 10.8212 12.2281 10.6085 12.2281 10.346Z" fill="black"/>
<path d="M12.0611 20.346C12.0611 19.9961 12.3602 19.7124 12.7291 19.7124C13.0981 19.7124 13.3971 19.9961 13.3971 20.346C13.3971 20.6959 13.0981 20.9796 12.7291 20.9796C12.3602 20.9796 12.0611 20.6959 12.0611 20.346Z" fill="black"/>
<path d="M11.8941 30.346C11.8941 29.9086 12.268 29.554 12.7291 29.554C13.1903 29.554 13.5641 29.9086 13.5641 30.346C13.5641 30.7834 13.1903 31.138 12.7291 31.138C12.268 31.138 11.8941 30.7834 11.8941 30.346Z" fill="black"/>
<path d="M11.7271 40.346C11.7271 39.8211 12.1757 39.3956 12.7291 39.3956C13.2825 39.3956 13.7311 39.8211 13.7311 40.346C13.7311 40.8709 13.2825 41.2964 12.7291 41.2964C12.1757 41.2964 11.7271 40.8709 11.7271 40.346Z" fill="black"/>
<path d="M11.5601 50.346C11.5601 49.7336 12.0835 49.2372 12.7291 49.2372C13.3748 49.2372 13.8981 49.7336 13.8981 50.346C13.8981 50.9584 13.3748 51.4548 12.7291 51.4548C12.0835 51.4548 11.5601 50.9584 11.5601 50.346Z" fill="black"/>
<path d="M11.3931 60.346C11.3931 59.6461 11.9913 59.0788 12.7291 59.0788C13.467 59.0788 14.0651 59.6461 14.0651 60.346C14.0651 61.0459 13.467 61.6132 12.7291 61.6132C11.9913 61.6132 11.3931 61.0459 11.3931 60.346Z" fill="black"/>
<path d="M11.2261 70.346C11.2261 69.5587 11.899 68.9204 12.7291 68.9204C13.5593 68.9204 14.2321 69.5587 14.2321 70.346C14.2321 71.1333 13.5593 71.7716 12.7291 71.7716C11.899 71.7716 11.2261 71.1333 11.2261 70.346Z" fill="black"/>
<path d="M11.0591 80.346C11.0591 79.4712 11.8068 78.762 12.7291 78.762C13.6514 78.762 14.3991 79.4712 14.3991 80.346C14.3991 81.2208 13.6514 81.93 12.7291 81.93C11.8068 81.93 11.0591 81.2208 11.0591 80.346Z" fill="black"/>
<path d="M10.8921 90.346C10.8921 89.3837 11.7146 88.6036 12.7291 88.6036C13.7437 88.6036 14.5661 89.3837 14.5661 90.346C14.5661 91.3083 13.7437 92.0884 12.7291 92.0884C11.7146 92.0884 10.8921 91.3083 10.8921 90.346Z" fill="black"/>
<path d="M10.7251 100.346C10.7251 99.2962 11.6223 98.4452 12.7291 98.4452C13.8359 98.4452 14.7331 99.2962 14.7331 100.346C14.7331 101.396 13.8359 102.247 12.7291 102.247C11.6223 102.247 10.7251 101.396 10.7251 100.346Z" fill="black"/>
<path d="M22.9684 0.345992C22.9684 0.186992 23.1043 0.0579937 23.2721 0.0579937C23.4398 0.0579937 23.5757 0.186992 23.5757 0.345992C23.5757 0.505092 23.4398 0.63399 23.2721 0.63399C23.1043 0.63399 22.9684 0.505092 22.9684 0.345992Z" fill="black"/>
<path d="M22.8166 10.346C22.8166 10.1074 23.0205 9.914 23.2721 9.914C23.5236 9.914 23.7275 10.1074 23.7275 10.346C23.7275 10.5846 23.5236 10.778 23.2721 10.778C23.0205 10.778 22.8166 10.5846 22.8166 10.346Z" fill="black"/>
<path d="M22.6648 20.346C22.6648 20.0279 22.9367 19.77 23.2721 19.77C23.6074 19.77 23.8793 20.0279 23.8793 20.346C23.8793 20.6641 23.6074 20.922 23.2721 20.922C22.9367 20.922 22.6648 20.6641 22.6648 20.346Z" fill="black"/>
<path d="M22.513 30.346C22.513 29.9483 22.8528 29.626 23.2721 29.626C23.6913 29.626 24.0311 29.9483 24.0311 30.346C24.0311 30.7437 23.6913 31.066 23.2721 31.066C22.8528 31.066 22.513 30.7437 22.513 30.346Z" fill="black"/>
<path d="M22.3611 40.346C22.3611 39.8689 22.7689 39.482 23.2721 39.482C23.7752 39.482 24.183 39.8689 24.183 40.346C24.183 40.8231 23.7752 41.21 23.2721 41.21C22.7689 41.21 22.3611 40.8231 22.3611 40.346Z" fill="black"/>
<path d="M22.2093 50.346C22.2093 49.7893 22.6851 49.338 23.2721 49.338C23.859 49.338 24.3348 49.7893 24.3348 50.346C24.3348 50.9027 23.859 51.354 23.2721 51.354C22.6851 51.354 22.2093 50.9027 22.2093 50.346Z" fill="black"/>
<path d="M22.0575 60.346C22.0575 59.7098 22.6013 59.194 23.2721 59.194C23.9428 59.194 24.4866 59.7098 24.4866 60.346C24.4866 60.9822 23.9428 61.498 23.2721 61.498C22.6013 61.498 22.0575 60.9822 22.0575 60.346Z" fill="black"/>
<path d="M21.9057 70.346C21.9057 69.6303 22.5174 69.05 23.2721 69.05C24.0267 69.05 24.6384 69.6303 24.6384 70.346C24.6384 71.0617 24.0267 71.642 23.2721 71.642C22.5174 71.642 21.9057 71.0617 21.9057 70.346Z" fill="black"/>
<path d="M21.7539 80.346C21.7539 79.5507 22.4336 78.906 23.2721 78.906C24.1105 78.906 24.7902 79.5507 24.7902 80.346C24.7902 81.1413 24.1105 81.786 23.2721 81.786C22.4336 81.786 21.7539 81.1413 21.7539 80.346Z" fill="black"/>
<path d="M21.6021 90.346C21.6021 89.4712 22.3498 88.762 23.2721 88.762C24.1944 88.762 24.9421 89.4712 24.9421 90.346C24.9421 91.2208 24.1944 91.93 23.2721 91.93C22.3498 91.93 21.6021 91.2208 21.6021 90.346Z" fill="black"/>
<path d="M21.4502 100.346C21.4502 99.3916 22.2659 98.618 23.2721 98.618C24.2782 98.618 25.0939 99.3916 25.0939 100.346C25.0939 101.3 24.2782 102.074 23.2721 102.074C22.2659 102.074 21.4502 101.3 21.4502 100.346Z" fill="black"/>
<path d="M33.5417 0.34599C33.5417 0.20299 33.664 0.0869857 33.815 0.0869857C33.966 0.0869857 34.0883 0.20299 34.0883 0.34599C34.0883 0.48919 33.966 0.605189 33.815 0.605189C33.664 0.605189 33.5417 0.48919 33.5417 0.34599Z" fill="black"/>
<path d="M33.4051 10.346C33.4051 10.1312 33.5886 9.9572 33.815 9.9572C34.0414 9.9572 34.2249 10.1312 34.2249 10.346C34.2249 10.5607 34.0414 10.7348 33.815 10.7348C33.5886 10.7348 33.4051 10.5607 33.4051 10.346Z" fill="black"/>
<path d="M33.2684 20.346C33.2684 20.0597 33.5131 19.8276 33.815 19.8276C34.1168 19.8276 34.3615 20.0597 34.3615 20.346C34.3615 20.6323 34.1168 20.8644 33.815 20.8644C33.5131 20.8644 33.2684 20.6323 33.2684 20.346Z" fill="black"/>
<path d="M33.1318 30.346C33.1318 29.9881 33.4377 29.698 33.815 29.698C34.1923 29.698 34.4982 29.9881 34.4982 30.346C34.4982 30.7039 34.1923 30.994 33.815 30.994C33.4377 30.994 33.1318 30.7039 33.1318 30.346Z" fill="black"/>
<path d="M32.9952 40.346C32.9952 39.9166 33.3623 39.5684 33.815 39.5684C34.2677 39.5684 34.6348 39.9166 34.6348 40.346C34.6348 40.7755 34.2677 41.1236 33.815 41.1236C33.3623 41.1236 32.9952 40.7755 32.9952 40.346Z" fill="black"/>
<path d="M32.8585 50.346C32.8585 49.8449 33.2868 49.4388 33.815 49.4388C34.3432 49.4388 34.7715 49.8449 34.7715 50.346C34.7715 50.8471 34.3432 51.2532 33.815 51.2532C33.2868 51.2532 32.8585 50.8471 32.8585 50.346Z" fill="black"/>
<path d="M32.7219 60.346C32.7219 59.7733 33.2113 59.3092 33.815 59.3092C34.4187 59.3092 34.9081 59.7733 34.9081 60.346C34.9081 60.9187 34.4187 61.3828 33.815 61.3828C33.2113 61.3828 32.7219 60.9187 32.7219 60.346Z" fill="black"/>
<path d="M32.5853 70.346C32.5853 69.7019 33.1358 69.1796 33.815 69.1796C34.4941 69.1796 35.0447 69.7019 35.0447 70.346C35.0447 70.9901 34.4941 71.5124 33.815 71.5124C33.1358 71.5124 32.5853 70.9901 32.5853 70.346Z" fill="black"/>
<path d="M32.4486 80.346C32.4486 79.6303 33.0603 79.05 33.815 79.05C34.5696 79.05 35.1814 79.6303 35.1814 80.346C35.1814 81.0617 34.5696 81.642 33.815 81.642C33.0603 81.642 32.4486 81.0617 32.4486 80.346Z" fill="black"/>
<path d="M32.312 90.346C32.312 89.5587 32.9848 88.9204 33.815 88.9204C34.645 88.9204 35.318 89.5587 35.318 90.346C35.318 91.1333 34.645 91.7716 33.815 91.7716C32.9848 91.7716 32.312 91.1333 32.312 90.346Z" fill="black"/>
<path d="M32.1754 100.346C32.1754 99.4871 32.9095 98.7908 33.815 98.7908C34.7205 98.7908 35.4546 99.4871 35.4546 100.346C35.4546 101.205 34.7205 101.901 33.815 101.901C32.9095 101.901 32.1754 101.205 32.1754 100.346Z" fill="black"/>
<path d="M44.115 0.345995C44.115 0.218995 44.2238 0.115995 44.3579 0.115995C44.492 0.115995 44.6009 0.218995 44.6009 0.345995C44.6009 0.473195 44.492 0.576396 44.3579 0.576396C44.2238 0.576396 44.115 0.473195 44.115 0.345995Z" fill="black"/>
<path d="M43.9936 10.346C43.9936 10.1551 44.1568 10.0004 44.3579 10.0004C44.5591 10.0004 44.7223 10.1551 44.7223 10.346C44.7223 10.5369 44.5591 10.6916 44.3579 10.6916C44.1568 10.6916 43.9936 10.5369 43.9936 10.346Z" fill="black"/>
<path d="M43.8721 20.346C43.8721 20.0915 44.0896 19.8852 44.3579 19.8852C44.6263 19.8852 44.8438 20.0915 44.8438 20.346C44.8438 20.6005 44.6263 20.8068 44.3579 20.8068C44.0896 20.8068 43.8721 20.6005 43.8721 20.346Z" fill="black"/>
<path d="M43.7507 30.346C43.7507 30.0279 44.0225 29.77 44.3579 29.77C44.6934 29.77 44.9652 30.0279 44.9652 30.346C44.9652 30.6641 44.6934 30.922 44.3579 30.922C44.0225 30.922 43.7507 30.6641 43.7507 30.346Z" fill="black"/>
<path d="M43.6292 40.346C43.6292 39.9643 43.9555 39.6548 44.3579 39.6548C44.7604 39.6548 45.0867 39.9643 45.0867 40.346C45.0867 40.7277 44.7604 41.0372 44.3579 41.0372C43.9555 41.0372 43.6292 40.7277 43.6292 40.346Z" fill="black"/>
<path d="M43.5078 50.346C43.5078 49.9007 43.8885 49.5396 44.3579 49.5396C44.8274 49.5396 45.2081 49.9007 45.2081 50.346C45.2081 50.7913 44.8274 51.1524 44.3579 51.1524C43.8885 51.1524 43.5078 50.7913 43.5078 50.346Z" fill="black"/>
<path d="M43.3863 60.346C43.3863 59.837 43.8213 59.4244 44.3579 59.4244C44.8946 59.4244 45.3296 59.837 45.3296 60.346C45.3296 60.855 44.8946 61.2676 44.3579 61.2676C43.8213 61.2676 43.3863 60.855 43.3863 60.346Z" fill="black"/>
<path d="M43.2649 70.346C43.2649 69.7733 43.7542 69.3092 44.3579 69.3092C44.9617 69.3092 45.451 69.7733 45.451 70.346C45.451 70.9187 44.9617 71.3828 44.3579 71.3828C43.7542 71.3828 43.2649 70.9187 43.2649 70.346Z" fill="black"/>
<path d="M43.1434 80.346C43.1434 79.7098 43.6872 79.194 44.3579 79.194C45.0287 79.194 45.5725 79.7098 45.5725 80.346C45.5725 80.9822 45.0287 81.498 44.3579 81.498C43.6872 81.498 43.1434 80.9822 43.1434 80.346Z" fill="black"/>
<path d="M43.0219 90.346C43.0219 89.6461 43.62 89.0788 44.3579 89.0788C45.0958 89.0788 45.6939 89.6461 45.6939 90.346C45.6939 91.0459 45.0958 91.6132 44.3579 91.6132C43.62 91.6132 43.0219 91.0459 43.0219 90.346Z" fill="black"/>
<path d="M42.9005 100.346C42.9005 99.5825 43.553 98.9636 44.3579 98.9636C45.1629 98.9636 45.8154 99.5825 45.8154 100.346C45.8154 101.109 45.1629 101.728 44.3579 101.728C43.553 101.728 42.9005 101.109 42.9005 100.346Z" fill="black"/>
<path d="M54.6883 0.346001C54.6883 0.235001 54.7835 0.143999 54.9009 0.143999C55.0182 0.143999 55.1134 0.235001 55.1134 0.346001C55.1134 0.457301 55.0182 0.547602 54.9009 0.547602C54.7835 0.547602 54.6883 0.457301 54.6883 0.346001Z" fill="black"/>
<path d="M54.5821 10.346C54.5821 10.179 54.7248 10.0436 54.9009 10.0436C55.077 10.0436 55.2197 10.179 55.2197 10.346C55.2197 10.513 55.077 10.6484 54.9009 10.6484C54.7248 10.6484 54.5821 10.513 54.5821 10.346Z" fill="black"/>
<path d="M54.4758 20.346C54.4758 20.1233 54.6661 19.9428 54.9009 19.9428C55.1357 19.9428 55.326 20.1233 55.326 20.346C55.326 20.5687 55.1357 20.7492 54.9009 20.7492C54.6661 20.7492 54.4758 20.5687 54.4758 20.346Z" fill="black"/>
<path d="M54.3695 30.346C54.3695 30.0676 54.6075 29.842 54.9009 29.842C55.1943 29.842 55.4322 30.0676 55.4322 30.346C55.4322 30.6244 55.1943 30.85 54.9009 30.85C54.6075 30.85 54.3695 30.6244 54.3695 30.346Z" fill="black"/>
<path d="M54.2632 40.346C54.2632 40.012 54.5487 39.7412 54.9009 39.7412C55.253 39.7412 55.5385 40.012 55.5385 40.346C55.5385 40.68 55.253 40.9508 54.9009 40.9508C54.5487 40.9508 54.2632 40.68 54.2632 40.346Z" fill="black"/>
<path d="M54.157 50.346C54.157 49.9564 54.4901 49.6404 54.9009 49.6404C55.3116 49.6404 55.6448 49.9564 55.6448 50.346C55.6448 50.7356 55.3116 51.0516 54.9009 51.0516C54.4901 51.0516 54.157 50.7356 54.157 50.346Z" fill="black"/>
<path d="M54.0507 60.346C54.0507 59.9006 54.4314 59.5396 54.9009 59.5396C55.3704 59.5396 55.7511 59.9006 55.7511 60.346C55.7511 60.7914 55.3704 61.1524 54.9009 61.1524C54.4314 61.1524 54.0507 60.7914 54.0507 60.346Z" fill="black"/>
<path d="M53.9444 70.346C53.9444 69.8449 54.3726 69.4388 54.9009 69.4388C55.4292 69.4388 55.8573 69.8449 55.8573 70.346C55.8573 70.8471 55.4292 71.2532 54.9009 71.2532C54.3726 71.2532 53.9444 70.8471 53.9444 70.346Z" fill="black"/>
<path d="M53.8382 80.346C53.8382 79.7893 54.314 79.338 54.9009 79.338C55.4878 79.338 55.9636 79.7893 55.9636 80.346C55.9636 80.9027 55.4878 81.354 54.9009 81.354C54.314 81.354 53.8382 80.9027 53.8382 80.346Z" fill="black"/>
<path d="M53.7319 90.346C53.7319 89.7336 54.2552 89.2372 54.9009 89.2372C55.5465 89.2372 56.0699 89.7336 56.0699 90.346C56.0699 90.9584 55.5465 91.4548 54.9009 91.4548C54.2552 91.4548 53.7319 90.9584 53.7319 90.346Z" fill="black"/>
<path d="M53.6256 100.346C53.6256 99.6779 54.1965 99.1364 54.9009 99.1364C55.6053 99.1364 56.1762 99.6779 56.1762 100.346C56.1762 101.014 55.6053 101.556 54.9009 101.556C54.1965 101.556 53.6256 101.014 53.6256 100.346Z" fill="black"/>
<path d="M65.2615 0.345991C65.2615 0.250991 65.3433 0.172993 65.4438 0.172993C65.5444 0.172993 65.6261 0.250991 65.6261 0.345991C65.6261 0.441391 65.5444 0.518794 65.4438 0.518794C65.3433 0.518794 65.2615 0.441391 65.2615 0.345991Z" fill="black"/>
<path d="M65.1706 10.346C65.1706 10.2028 65.2928 10.0868 65.4438 10.0868C65.5948 10.0868 65.7171 10.2028 65.7171 10.346C65.7171 10.4892 65.5948 10.6052 65.4438 10.6052C65.2928 10.6052 65.1706 10.4892 65.1706 10.346Z" fill="black"/>
<path d="M65.0795 20.346C65.0795 20.1551 65.2427 20.0004 65.4438 20.0004C65.645 20.0004 65.8082 20.1551 65.8082 20.346C65.8082 20.5369 65.645 20.6916 65.4438 20.6916C65.2427 20.6916 65.0795 20.5369 65.0795 20.346Z" fill="black"/>
<path d="M64.9884 30.346C64.9884 30.1074 65.1923 29.914 65.4438 29.914C65.6954 29.914 65.8993 30.1074 65.8993 30.346C65.8993 30.5846 65.6954 30.778 65.4438 30.778C65.1923 30.778 64.9884 30.5846 64.9884 30.346Z" fill="black"/>
<path d="M64.8973 40.346C64.8973 40.0597 65.142 39.8276 65.4438 39.8276C65.7457 39.8276 65.9904 40.0597 65.9904 40.346C65.9904 40.6323 65.7457 40.8644 65.4438 40.8644C65.142 40.8644 64.8973 40.6323 64.8973 40.346Z" fill="black"/>
<path d="M64.8062 50.346C64.8062 50.012 65.0917 49.7412 65.4438 49.7412C65.796 49.7412 66.0815 50.012 66.0815 50.346C66.0815 50.68 65.796 50.9508 65.4438 50.9508C65.0917 50.9508 64.8062 50.68 64.8062 50.346Z" fill="black"/>
<path d="M64.7151 60.346C64.7151 59.9643 65.0414 59.6548 65.4438 59.6548C65.8463 59.6548 66.1726 59.9643 66.1726 60.346C66.1726 60.7277 65.8463 61.0372 65.4438 61.0372C65.0414 61.0372 64.7151 60.7277 64.7151 60.346Z" fill="black"/>
<path d="M64.624 70.346C64.624 69.9165 64.991 69.5684 65.4438 69.5684C65.8966 69.5684 66.2636 69.9165 66.2636 70.346C66.2636 70.7755 65.8966 71.1236 65.4438 71.1236C64.991 71.1236 64.624 70.7755 64.624 70.346Z" fill="black"/>
<path d="M64.5329 80.346C64.5329 79.8689 64.9408 79.482 65.4438 79.482C65.9468 79.482 66.3547 79.8689 66.3547 80.346C66.3547 80.8231 65.9468 81.21 65.4438 81.21C64.9408 81.21 64.5329 80.8231 64.5329 80.346Z" fill="black"/>
<path d="M64.4418 90.346C64.4418 89.8211 64.8904 89.3956 65.4438 89.3956C65.9972 89.3956 66.4458 89.8211 66.4458 90.346C66.4458 90.8709 65.9972 91.2964 65.4438 91.2964C64.8904 91.2964 64.4418 90.8709 64.4418 90.346Z" fill="black"/>
<path d="M64.3507 100.346C64.3507 99.7733 64.84 99.3092 65.4438 99.3092C66.0476 99.3092 66.5369 99.7733 66.5369 100.346C66.5369 100.919 66.0476 101.383 65.4438 101.383C64.84 101.383 64.3507 100.919 64.3507 100.346Z" fill="black"/>
<path d="M75.835 0.345996C75.835 0.265996 75.903 0.201992 75.9868 0.201992C76.0706 0.201992 76.1386 0.265996 76.1386 0.345996C76.1386 0.425496 76.0706 0.49 75.9868 0.49C75.903 0.49 75.835 0.425496 75.835 0.345996Z" fill="black"/>
<path d="M75.759 10.346C75.759 10.2267 75.861 10.13 75.9868 10.13C76.1125 10.13 76.2145 10.2267 76.2145 10.346C76.2145 10.4653 76.1125 10.562 75.9868 10.562C75.861 10.562 75.759 10.4653 75.759 10.346Z" fill="black"/>
<path d="M75.6831 20.346C75.6831 20.1869 75.819 20.058 75.9868 20.058C76.1545 20.058 76.2904 20.1869 76.2904 20.346C76.2904 20.5051 76.1545 20.634 75.9868 20.634C75.819 20.634 75.6831 20.5051 75.6831 20.346Z" fill="black"/>
<path d="M75.6072 30.346C75.6072 30.1472 75.7772 29.986 75.9868 29.986C76.1964 29.986 76.3663 30.1472 76.3663 30.346C76.3663 30.5448 76.1964 30.706 75.9868 30.706C75.7772 30.706 75.6072 30.5448 75.6072 30.346Z" fill="black"/>
<path d="M75.5313 40.346C75.5313 40.1074 75.7352 39.914 75.9868 39.914C76.2383 39.914 76.4422 40.1074 76.4422 40.346C76.4422 40.5846 76.2383 40.778 75.9868 40.778C75.7352 40.778 75.5313 40.5846 75.5313 40.346Z" fill="black"/>
<path d="M75.4554 50.346C75.4554 50.0677 75.6934 49.842 75.9868 49.842C76.2802 49.842 76.5181 50.0677 76.5181 50.346C76.5181 50.6243 76.2802 50.85 75.9868 50.85C75.6934 50.85 75.4554 50.6243 75.4554 50.346Z" fill="black"/>
<path d="M75.3795 60.346C75.3795 60.0278 75.6513 59.77 75.9868 59.77C76.3223 59.77 76.594 60.0278 76.594 60.346C76.594 60.6642 76.3223 60.922 75.9868 60.922C75.6513 60.922 75.3795 60.6642 75.3795 60.346Z" fill="black"/>
<path d="M75.3036 70.346C75.3036 69.9881 75.6094 69.698 75.9868 69.698C76.3641 69.698 76.67 69.9881 76.67 70.346C76.67 70.7039 76.3641 70.994 75.9868 70.994C75.6094 70.994 75.3036 70.7039 75.3036 70.346Z" fill="black"/>
<path d="M75.2277 80.346C75.2277 79.9483 75.5675 79.626 75.9868 79.626C76.4061 79.626 76.7459 79.9483 76.7459 80.346C76.7459 80.7437 76.4061 81.066 75.9868 81.066C75.5675 81.066 75.2277 80.7437 75.2277 80.346Z" fill="black"/>
<path d="M75.1518 90.346C75.1518 89.9086 75.5256 89.554 75.9868 89.554C76.4479 89.554 76.8218 89.9086 76.8218 90.346C76.8218 90.7834 76.4479 91.138 75.9868 91.138C75.5256 91.138 75.1518 90.7834 75.1518 90.346Z" fill="black"/>
<path d="M75.0759 100.346C75.0759 99.8689 75.4838 99.482 75.9868 99.482C76.4898 99.482 76.8977 99.8689 76.8977 100.346C76.8977 100.823 76.4898 101.21 75.9868 101.21C75.4838 101.21 75.0759 100.823 75.0759 100.346Z" fill="black"/>
<path d="M86.4082 0.346004C86.4082 0.282004 86.4625 0.231004 86.5297 0.231004C86.5969 0.231004 86.6512 0.282004 86.6512 0.346004C86.6512 0.409604 86.5969 0.461199 86.5297 0.461199C86.4625 0.461199 86.4082 0.409604 86.4082 0.346004Z" fill="black"/>
<path d="M86.3474 10.346C86.3474 10.2506 86.4291 10.1732 86.5297 10.1732C86.6303 10.1732 86.712 10.2506 86.712 10.346C86.712 10.4414 86.6303 10.5188 86.5297 10.5188C86.4291 10.5188 86.3474 10.4414 86.3474 10.346Z" fill="black"/>
<path d="M86.2868 20.346C86.2868 20.2188 86.3956 20.1156 86.5297 20.1156C86.6638 20.1156 86.7726 20.2188 86.7726 20.346C86.7726 20.4732 86.6638 20.5764 86.5297 20.5764C86.3956 20.5764 86.2868 20.4732 86.2868 20.346Z" fill="black"/>
<path d="M86.2261 30.346C86.2261 30.1869 86.362 30.058 86.5297 30.058C86.6974 30.058 86.8333 30.1869 86.8333 30.346C86.8333 30.5051 86.6974 30.634 86.5297 30.634C86.362 30.634 86.2261 30.5051 86.2261 30.346Z" fill="black"/>
<path d="M86.1653 40.346C86.1653 40.1552 86.3285 40.0004 86.5297 40.0004C86.7309 40.0004 86.8941 40.1552 86.8941 40.346C86.8941 40.5368 86.7309 40.6916 86.5297 40.6916C86.3285 40.6916 86.1653 40.5368 86.1653 40.346Z" fill="black"/>
<path d="M86.1046 50.346C86.1046 50.1233 86.2949 49.9428 86.5297 49.9428C86.7645 49.9428 86.9548 50.1233 86.9548 50.346C86.9548 50.5687 86.7645 50.7492 86.5297 50.7492C86.2949 50.7492 86.1046 50.5687 86.1046 50.346Z" fill="black"/>
<path d="M86.0439 60.346C86.0439 60.0915 86.2614 59.8852 86.5297 59.8852C86.798 59.8852 87.0155 60.0915 87.0155 60.346C87.0155 60.6005 86.798 60.8068 86.5297 60.8068C86.2614 60.8068 86.0439 60.6005 86.0439 60.346Z" fill="black"/>
<path d="M85.9832 70.346C85.9832 70.0597 86.2279 69.8276 86.5297 69.8276C86.8316 69.8276 87.0762 70.0597 87.0762 70.346C87.0762 70.6323 86.8316 70.8644 86.5297 70.8644C86.2279 70.8644 85.9832 70.6323 85.9832 70.346Z" fill="black"/>
<path d="M85.9224 80.346C85.9224 80.0278 86.1942 79.77 86.5297 79.77C86.8652 79.77 87.137 80.0278 87.137 80.346C87.137 80.6642 86.8652 80.922 86.5297 80.922C86.1942 80.922 85.9224 80.6642 85.9224 80.346Z" fill="black"/>
<path d="M85.8617 90.346C85.8617 89.9961 86.1608 89.7124 86.5297 89.7124C86.8986 89.7124 87.1977 89.9961 87.1977 90.346C87.1977 90.6959 86.8986 90.9796 86.5297 90.9796C86.1608 90.9796 85.8617 90.6959 85.8617 90.346Z" fill="black"/>
<path d="M85.801 100.346C85.801 99.9643 86.1273 99.6548 86.5297 99.6548C86.9321 99.6548 87.2584 99.9643 87.2584 100.346C87.2584 100.728 86.9321 101.037 86.5297 101.037C86.1273 101.037 85.801 100.728 85.801 100.346Z" fill="black"/>
<path d="M96.9816 0.346002C96.9816 0.298002 97.0222 0.260006 97.0726 0.260006C97.123 0.260006 97.1637 0.298002 97.1637 0.346002C97.1637 0.393702 97.123 0.432398 97.0726 0.432398C97.0222 0.432398 96.9816 0.393702 96.9816 0.346002Z" fill="black"/>
<path d="M96.936 10.346C96.936 10.2744 96.9972 10.2164 97.0726 10.2164C97.1481 10.2164 97.2093 10.2744 97.2093 10.346C97.2093 10.4176 97.1481 10.4756 97.0726 10.4756C96.9972 10.4756 96.936 10.4176 96.936 10.346Z" fill="black"/>
<path d="M96.8904 20.346C96.8904 20.2506 96.9721 20.1732 97.0726 20.1732C97.1732 20.1732 97.2549 20.2506 97.2549 20.346C97.2549 20.4414 97.1732 20.5188 97.0726 20.5188C96.9721 20.5188 96.8904 20.4414 96.8904 20.346Z" fill="black"/>
<path d="M96.8449 30.346C96.8449 30.2267 96.9469 30.13 97.0726 30.13C97.1984 30.13 97.3004 30.2267 97.3004 30.346C97.3004 30.4653 97.1984 30.562 97.0726 30.562C96.9469 30.562 96.8449 30.4653 96.8449 30.346Z" fill="black"/>
<path d="M96.7994 40.346C96.7994 40.2028 96.9217 40.0868 97.0726 40.0868C97.2236 40.0868 97.3459 40.2028 97.3459 40.346C97.3459 40.4892 97.2236 40.6052 97.0726 40.6052C96.9217 40.6052 96.7994 40.4892 96.7994 40.346Z" fill="black"/>
<path d="M96.7538 50.346C96.7538 50.179 96.8966 50.0436 97.0726 50.0436C97.2487 50.0436 97.3915 50.179 97.3915 50.346C97.3915 50.513 97.2487 50.6484 97.0726 50.6484C96.8966 50.6484 96.7538 50.513 96.7538 50.346Z" fill="black"/>
<path d="M96.7083 60.346C96.7083 60.1552 96.8715 60.0004 97.0726 60.0004C97.2738 60.0004 97.437 60.1552 97.437 60.346C97.437 60.5368 97.2738 60.6916 97.0726 60.6916C96.8715 60.6916 96.7083 60.5368 96.7083 60.346Z" fill="black"/>
<path d="M96.6627 70.346C96.6627 70.1313 96.8463 69.9572 97.0726 69.9572C97.299 69.9572 97.4826 70.1313 97.4826 70.346C97.4826 70.5607 97.299 70.7348 97.0726 70.7348C96.8463 70.7348 96.6627 70.5607 96.6627 70.346Z" fill="black"/>
<path d="M96.6172 80.346C96.6172 80.1074 96.8211 79.914 97.0726 79.914C97.3242 79.914 97.5281 80.1074 97.5281 80.346C97.5281 80.5846 97.3242 80.778 97.0726 80.778C96.8211 80.778 96.6172 80.5846 96.6172 80.346Z" fill="black"/>
<path d="M96.5717 90.346C96.5717 90.0836 96.796 89.8708 97.0726 89.8708C97.3493 89.8708 97.5736 90.0836 97.5736 90.346C97.5736 90.6084 97.3493 90.8212 97.0726 90.8212C96.796 90.8212 96.5717 90.6084 96.5717 90.346Z" fill="black"/>
<path d="M96.5261 100.346C96.5261 100.06 96.7708 99.8276 97.0726 99.8276C97.3745 99.8276 97.6192 100.06 97.6192 100.346C97.6192 100.632 97.3745 100.864 97.0726 100.864C96.7708 100.864 96.5261 100.632 96.5261 100.346Z" fill="black"/>
<path d="M107.555 0.346C107.555 0.314 107.582 0.288002 107.616 0.288002C107.649 0.288002 107.677 0.314 107.677 0.346C107.677 0.3778 107.649 0.403597 107.616 0.403597C107.582 0.403597 107.555 0.3778 107.555 0.346Z" fill="black"/>
<path d="M107.525 10.346C107.525 10.2983 107.565 10.2596 107.616 10.2596C107.666 10.2596 107.706 10.2983 107.706 10.346C107.706 10.3937 107.666 10.4324 107.616 10.4324C107.565 10.4324 107.525 10.3937 107.525 10.346Z" fill="black"/>
<path d="M107.494 20.346C107.494 20.2824 107.548 20.2308 107.616 20.2308C107.683 20.2308 107.737 20.2824 107.737 20.346C107.737 20.4096 107.683 20.4612 107.616 20.4612C107.548 20.4612 107.494 20.4096 107.494 20.346Z" fill="black"/>
<path d="M107.464 30.346C107.464 30.2665 107.532 30.202 107.616 30.202C107.699 30.202 107.767 30.2665 107.767 30.346C107.767 30.4255 107.699 30.49 107.616 30.49C107.532 30.49 107.464 30.4255 107.464 30.346Z" fill="black"/>
<path d="M107.433 40.346C107.433 40.2506 107.515 40.1732 107.616 40.1732C107.716 40.1732 107.798 40.2506 107.798 40.346C107.798 40.4414 107.716 40.5188 107.616 40.5188C107.515 40.5188 107.433 40.4414 107.433 40.346Z" fill="black"/>
<path d="M107.403 50.346C107.403 50.2347 107.498 50.1444 107.616 50.1444C107.733 50.1444 107.829 50.2347 107.829 50.346C107.829 50.4573 107.733 50.5476 107.616 50.5476C107.498 50.5476 107.403 50.4573 107.403 50.346Z" fill="black"/>
<path d="M107.373 60.346C107.373 60.2188 107.481 60.1156 107.616 60.1156C107.749 60.1156 107.858 60.2188 107.858 60.346C107.858 60.4732 107.749 60.5764 107.616 60.5764C107.481 60.5764 107.373 60.4732 107.373 60.346Z" fill="black"/>
<path d="M107.342 70.346C107.342 70.2028 107.465 70.0868 107.616 70.0868C107.766 70.0868 107.889 70.2028 107.889 70.346C107.889 70.4892 107.766 70.6052 107.616 70.6052C107.465 70.6052 107.342 70.4892 107.342 70.346Z" fill="black"/>
<path d="M107.312 80.346C107.312 80.1869 107.448 80.058 107.616 80.058C107.783 80.058 107.919 80.1869 107.919 80.346C107.919 80.5051 107.783 80.634 107.616 80.634C107.448 80.634 107.312 80.5051 107.312 80.346Z" fill="black"/>
<path d="M107.282 90.346C107.282 90.171 107.431 90.0292 107.616 90.0292C107.8 90.0292 107.95 90.171 107.95 90.346C107.95 90.521 107.8 90.6628 107.616 90.6628C107.431 90.6628 107.282 90.521 107.282 90.346Z" fill="black"/>
<path d="M107.251 100.346C107.251 100.155 107.414 100 107.616 100C107.817 100 107.98 100.155 107.98 100.346C107.98 100.537 107.817 100.692 107.616 100.692C107.414 100.692 107.251 100.537 107.251 100.346Z" fill="black"/>
</svg>
